<svg width="247" height="230" viewBox="0 0 247 230" fill="none" xmlns="http://www.w3.org/2000/svg">
<path d="M123.398 196.678C70.5428 196.678 27.6953 194.346 27.6953 191.47C27.6953 188.595 70.5428 186.263 123.398 186.263C176.253 186.263 219.1 188.595 219.1 191.47C219.1 194.346 176.253 196.678 123.398 196.678Z" fill="#F5F5F5"/>
<path d="M177.826 191.47H179.8" stroke="#8C52FF" stroke-linecap="round" stroke-linejoin="round"/>
<path d="M183.532 191.47H233.952" stroke="#8C52FF" stroke-linecap="round" stroke-linejoin="round" stroke-dasharray="7.57 7.57"/>
<path d="M235.818 191.47H237.792" stroke="#8C52FF" stroke-linecap="round" stroke-linejoin="round"/>
<path d="M60.3382 81.3606L117.291 82.2407L116.609 120.558L59.6564 119.678L60.3382 81.3606Z" fill="#8C52FF"/>
<path opacity="0.3" d="M82.9138 81.7047L117.347 82.2368L116.665 120.554L82.2321 120.022L82.9138 81.7047Z" fill="white"/>
<path opacity="0.3" d="M77.7251 84.2864L87.6414 84.4712L87.5861 87.0472L77.6698 86.8624L77.7251 84.2864Z" fill="white"/>
<path opacity="0.3" d="M77.4306 114.083L87.3455 114.236L87.2996 116.811L77.3847 116.658L77.4306 114.083Z" fill="white"/>
<path d="M70.8203 105.887C67.6063 105.887 65.0009 103.14 65.0009 99.7507C65.0009 96.3616 67.6063 93.6143 70.8203 93.6143C74.0343 93.6143 76.6398 96.3616 76.6398 99.7507C76.6398 103.14 74.0343 105.887 70.8203 105.887Z" stroke="white" stroke-miterlimit="10"/>
<path d="M70.5785 94.5483V95.5788" stroke="white" stroke-linecap="round" stroke-linejoin="round"/>
<path d="M70.3268 103.987V105.018" stroke="white" stroke-linecap="round" stroke-linejoin="round"/>
<path d="M75.7266 99.5483H74.616" stroke="white" stroke-linecap="round" stroke-linejoin="round"/>
<path d="M66.8123 99.5532H65.7017" stroke="white" stroke-linecap="round" stroke-linejoin="round"/>
<path d="M70.5834 99.5485L70.5788 96.3745" stroke="white" stroke-width="0.5" stroke-linecap="round" stroke-linejoin="round"/>
<path d="M70.3662 99.7554L67.9575 102" stroke="white" stroke-width="0.5" stroke-linecap="round" stroke-linejoin="round"/>
<path d="M70.0454 99.5532C70.0454 99.6523 70.0769 99.7493 70.136 99.8317C70.1951 99.9142 70.2792 99.9785 70.3775 100.016C70.4758 100.054 70.5839 100.064 70.6883 100.045C70.7927 100.026 70.8885 99.9779 70.9638 99.9077C71.039 99.8376 71.0902 99.7483 71.111 99.651C71.1318 99.5537 71.1211 99.4529 71.0804 99.3613C71.0397 99.2697 70.9707 99.1914 70.8822 99.1363C70.7938 99.0812 70.6898 99.0518 70.5833 99.0518C70.5125 99.0512 70.4423 99.0637 70.3767 99.0887C70.3111 99.1137 70.2516 99.1506 70.2015 99.1973C70.1514 99.2439 70.1118 99.2995 70.085 99.3606C70.0582 99.4217 70.0447 99.4872 70.0454 99.5532Z" fill="white"/>
<path d="M133.206 167.049C132.347 167.661 115.106 165.931 119.563 137.425C119.563 137.425 111.384 139.361 110.505 139.233C110.505 139.233 98.5062 156.377 107.243 164.868C115.979 173.36 129 173.88 129 173.88L133.206 167.049Z" fill="#8C52FF"/>
<path opacity="0.3" d="M133.206 167.049C132.347 167.661 115.106 165.931 119.563 137.425C119.563 137.425 111.384 139.361 110.505 139.233C110.505 139.233 98.5062 156.377 107.243 164.868C115.979 173.36 129 173.88 129 173.88L133.206 167.049Z" fill="black"/>
<path d="M115.703 141.836C115.658 141.836 120.52 141.923 122.149 140.037C123.778 138.151 124.878 134.78 121.917 132.48C118.955 130.18 101.566 120.244 93.3774 119.462C85.1887 118.68 76.4225 123.602 76.4225 123.602L87.1433 130.989L110.229 136.196L115.703 141.836Z" fill="#263238"/>
<path d="M131.423 162.559L130.974 166.681L125.663 166.262L126.463 162.025L131.423 162.559Z" fill="#FFC3BD"/>
<path d="M132.455 166.382L124.75 166.281L124.202 169.906C124.202 169.906 131.418 169.998 134.385 169.63C137.351 169.262 136.887 167.822 136.887 167.822C136.887 167.822 133.412 167.9 132.455 166.382Z" fill="#263238"/>
<path d="M65.2141 176.815C64.0637 166.278 70.8897 157 80.4604 156.092C90.0311 155.185 98.7224 162.991 99.8728 173.528C101.023 184.065 94.1973 193.343 84.6266 194.25C75.0558 195.158 66.3646 187.352 65.2141 176.815Z" fill="#263238"/>
<path d="M94.6509 116.513C94.6509 116.513 93.8512 133.612 104.523 134.099C115.194 134.587 126.66 133.497 126.66 133.497L123.299 164.22L133.304 164.795C133.304 164.795 140.486 138.731 141.616 132.181C142.746 125.631 141.764 120.998 134.345 118.091C126.927 115.184 94.6509 116.513 94.6509 116.513Z" fill="#EB0029"/>
<path d="M154.37 170.761L141.078 134.78L123.309 116.5C123.309 116.5 138.817 116.555 146.271 120.548C153.724 124.54 154 129.338 155.367 135.047C156.735 140.755 162.219 167.776 162.219 167.776L154.37 170.761Z" fill="#EB0029"/>
<path opacity="0.7" d="M94.6509 116.513C94.6509 116.513 111.166 115.828 123.279 116.513C123.279 116.513 138.788 116.568 146.241 120.561C153.694 124.554 154 129.338 155.367 135.047C156.735 140.755 162.219 167.776 162.219 167.776L154.37 170.761L141.078 134.78C138.842 144.753 133.304 164.776 133.304 164.776L123.299 164.22L126.665 133.515C126.665 133.515 115.204 134.605 104.528 134.117C93.8512 133.63 94.6509 116.513 94.6509 116.513Z" fill="black"/>
<path d="M121.917 88.7798L128.052 89.4744C128.052 89.4744 129.118 99.9854 130.11 102.028C130.11 102.028 148.98 104.443 156.71 104.236L160.634 106.72L160.772 111.039L156.927 111.145L155.688 108.408C155.688 108.408 153.092 108.302 152.49 106.941C152.49 106.941 132.44 111.453 125.056 106.301C125.046 106.306 120.594 100.211 121.917 88.7798Z" fill="#FFC3BD"/>
<path d="M104.335 60.6323C104.335 60.6323 102.415 62.9323 103.146 64.9241C103.347 65.4922 103.702 66.0022 104.177 66.4051C104.652 66.8079 105.23 67.09 105.855 67.2241C105.855 67.2241 106.216 70.4119 108.235 70.5039C110.253 70.5959 109.577 63.4797 109.577 63.4797L104.335 60.6323Z" fill="#263238"/>
<path d="M119.878 116.591L121.226 96.0432L129.587 90.8636C129.587 90.8636 126.853 81.8798 121.621 80.3572C116.389 78.8346 104.977 75.3432 98.0567 77.0774C91.1365 78.8116 91.9312 86.42 93.1208 92.0642L94.4535 92.3586C94.4535 92.3586 94.6608 114.6 94.6706 116.513L119.878 116.591Z" fill="#263238"/>
<path d="M104.834 78.3469C107.573 80.8171 113.161 82.2891 114.705 81.0609C116.25 79.8327 114.301 78.7057 112.85 77.3165C112.065 76.5529 112.089 75.1223 112.272 73.9815C112.368 73.4067 112.51 72.8393 112.697 72.2841C117.825 72.0219 119.952 69.7863 120.165 65.8441C120.377 61.9019 118.462 57.3249 118.462 57.3249L114.839 54.4453C114.839 54.4453 109.903 55.1353 105.954 57.6653C103.605 59.1557 104.301 62.0905 105.273 64.2571C105.685 65.1794 106.18 66.0673 106.754 66.9113C107.307 72.3071 104.834 78.3469 104.834 78.3469Z" fill="#FFC3BD"/>
<path d="M117.312 66.9299C117.312 66.9299 115.337 67.0173 114.473 65.8765" stroke="#263238" stroke-linecap="round" stroke-linejoin="round"/>
<path d="M114.167 62.2744C114.167 62.624 114.395 62.9 114.661 62.8954C114.928 62.8908 115.12 62.601 115.11 62.2514C115.1 61.9018 114.883 61.6258 114.617 61.6304C114.35 61.635 114.153 61.9248 114.167 62.2744Z" fill="#263238"/>
<path d="M118.669 62.3848C118.669 62.7344 118.896 63.0104 119.163 63.0058C119.429 63.0012 119.622 62.7114 119.612 62.3618C119.602 62.0122 119.385 61.7362 119.118 61.7408C118.852 61.7454 118.654 62.0398 118.669 62.3848Z" fill="#263238"/>
<path d="M117.104 65.2417L117.307 62.4219L118.753 65.0991C118.527 65.2779 118.248 65.3875 117.953 65.413C117.658 65.4385 117.362 65.3787 117.104 65.2417Z" fill="#ED847E"/>
<path d="M114.404 60.0665C114.026 59.9695 113.623 60.0009 113.266 60.1551C112.91 60.3092 112.624 60.5761 112.46 60.9083" stroke="#263238" stroke-linecap="round" stroke-linejoin="round"/>
<path d="M120.061 60.5865C120.061 60.5865 119.153 59.6665 118.087 59.9011" stroke="#263238" stroke-linecap="round" stroke-linejoin="round"/>
<path d="M105.238 64.2573C110.885 64.4459 111.586 58.4797 111.586 58.4797C114.38 59.8597 118.442 57.3297 118.442 57.3297L114.819 54.4409C114.819 54.4409 109.883 55.1401 105.934 57.6609C103.57 59.1559 104.266 62.0999 105.238 64.2573Z" fill="#263238"/>
<path d="M120.258 59.0777C120.258 59.0777 123.18 57.2653 121.892 55.9589C120.604 54.6525 112.711 57.1365 106.813 60.1817C106.813 60.1817 120.323 51.7591 123.995 54.4225C127.03 56.6259 120.298 59.6849 120.5 59.6803L120.258 59.0777Z" fill="#8C52FF"/>
<path d="M103.777 58.4612C103.786 59.415 103.98 60.3595 104.35 61.2488L117.618 55.2688C117.068 54.6773 116.409 54.1819 115.673 53.806C114.888 53.3874 114.034 53.0921 113.146 52.932C112.204 52.7642 111.24 52.7332 110.288 52.84C105.436 53.3598 103.753 56.8374 103.777 58.4612Z" fill="#8C52FF"/>
<path d="M162.534 119.356C162.534 119.356 177.52 138.676 165.18 168.415" stroke="#263238" stroke-linecap="round" stroke-linejoin="round"/>
<path d="M142.756 129.393C142.756 129.393 142.756 129.43 142.756 129.504C142.756 129.577 142.756 129.619 142.756 129.701V129.747C142.935 131.608 143.265 133.453 143.743 135.267C144.425 137.949 145.328 140.502 146.073 142.554C149.232 151.271 148.867 160.664 148.867 160.664C149.913 159.45 151.828 158.585 154.222 157.978C162.939 155.747 177.737 156.943 177.737 156.943C180.639 147.453 179.603 132.599 176.715 124.283C173.828 115.966 165.822 117.843 165.822 117.843C165.822 117.843 157.372 118.073 156.31 117.967C154.368 117.747 152.402 117.784 150.471 118.077C143.946 119.19 142.376 123.997 142.756 129.393Z" fill="#8C52FF"/>
<path d="M77.696 165.6C92.5037 178.056 121.088 179.363 142.356 177.983L154.272 158.005L159.099 149.914L143.59 130.433L142.771 129.407C142.771 129.407 142.771 129.444 142.771 129.517C142.771 129.591 142.771 129.632 142.771 129.715V129.761C142.983 133.234 144.355 161.105 133.393 167.941L133.304 168.001C131.821 168.894 130.099 169.385 128.333 169.418C108.22 169.96 108.782 145.498 113.896 140.258L78.9941 133.722C78.9941 133.722 72.1036 149.891 77.696 165.6Z" fill="#8C52FF"/>
<path d="M116.517 134.955C116.517 134.955 119.789 137.485 118.101 140.879C116.413 144.274 100.14 137.682 93.7328 136.482C87.326 135.281 79.9123 134.108 76.7237 133.496C73.5351 132.885 73.8115 124.361 76.4176 123.606C79.0238 122.852 104.552 127.056 108.787 129.366C111.584 130.948 114.177 132.824 116.517 134.955Z" fill="#263238"/>
<path d="M108.323 66.3641C108.635 66.0516 108.823 65.65 108.858 65.2248C108.893 64.7995 108.773 64.3758 108.516 64.0227C107.726 62.9187 106.132 61.1661 104.602 62.4771C102.46 64.3171 106.117 67.6613 107.632 66.8517C107.886 66.7203 108.119 66.5562 108.323 66.3641Z" fill="#FFC3BD"/>
<path opacity="0.2" d="M119.445 59.176C119.445 59.176 122.368 57.3636 121.079 56.0572C120.507 55.4776 118.794 55.5972 116.479 56.2136C114.99 56.587 113.532 57.059 112.116 57.6258C110.082 58.4492 107.92 59.5026 106 60.28C106 60.28 119.51 51.8574 123.182 54.5208C126.218 56.7242 119.904 59.5808 119.682 59.774L119.574 59.4014L119.445 59.176Z" fill="black"/>
<path d="M118.871 58.291C118.871 58.291 121.833 58.751 119.79 61.7226L118.871 58.291Z" fill="#263238"/>
<path d="M116.033 56.4785C116.033 56.4785 120.5 55.0157 121.744 55.8437C122.988 56.6717 121.685 58.2495 120.263 59.0637L119.123 59.2017L118.452 57.3157L116.714 57.1179L116.033 56.4785Z" fill="#263238"/>
<path opacity="0.3" d="M109.947 54.2292L111.018 55.7058L115.673 53.8198C114.888 53.4012 114.034 53.1059 113.146 52.9458L109.947 54.2292Z" fill="white"/>
<path opacity="0.1" d="M110.984 71.8794C111.292 72.6428 111.734 73.3532 112.292 73.9816C112.388 73.4068 112.53 72.8394 112.716 72.2842C112.118 72.2452 111.531 72.1082 110.984 71.8794Z" fill="black"/>
<path d="M155.234 112.332C155.432 115.519 156.912 118.128 158.729 118.772C159.043 118.884 159.38 118.933 159.716 118.914C161.957 118.795 163.586 115.662 163.359 111.922C163.132 108.182 161.128 105.248 158.887 105.367C157.974 105.413 157.169 105.961 156.542 106.839C155.619 108.1 155.101 110.114 155.234 112.332Z" fill="#F5F5F5"/>
<path d="M155.234 112.332C155.432 115.52 156.912 118.128 158.729 118.772C160.802 118.661 162.307 115.768 162.095 112.332C161.883 108.896 160.037 106.168 157.964 106.278C157.43 106.315 156.924 106.518 156.527 106.853C155.619 108.1 155.101 110.115 155.234 112.332Z" fill="white"/>
<path d="M75.2379 157.517C79.0533 155.02 93.8166 152.568 93.8166 152.568C102.785 152.568 110.658 160.089 111.744 170.075C112.632 178.199 108.782 185.573 102.578 188.935C102.578 188.935 102.06 189.138 101.191 189.455C97.9036 190.665 89.5619 193.595 84.6309 194.239" fill="#263238"/>
<path opacity="0.3" d="M65.2141 176.815C64.0637 166.278 70.8897 157 80.4604 156.092C90.0311 155.185 98.7224 162.991 99.8728 173.528C101.023 184.065 94.1973 193.343 84.6266 194.25C75.0558 195.158 66.3646 187.352 65.2141 176.815Z" fill="black"/>
<path d="M141.948 176.201C140.797 165.664 147.623 156.387 157.194 155.479C166.765 154.572 175.456 162.378 176.606 172.915C177.757 183.452 170.931 192.729 161.36 193.637C151.789 194.545 143.098 186.738 141.948 176.201Z" fill="#263238"/>
<path d="M148.63 158.994L157.455 193.526C158.743 193.721 160.052 193.756 161.35 193.632H161.449C163.142 193.227 162.386 193.664 164.084 193.14C168.403 191.811 174.677 189.46 174.677 189.46C181.325 186.447 185.082 179.119 184.169 170.747C183.063 160.604 175.254 153.028 166.064 153.649C166.064 153.649 161.7 154.399 157.209 155.489C155.234 155.949 153.26 156.496 151.636 157.067C150.561 157.604 149.553 158.25 148.63 158.994Z" fill="#263238"/>
<path opacity="0.3" d="M141.947 176.18C142.934 185.265 149.533 192.316 157.465 193.508C158.753 193.702 160.062 193.738 161.36 193.614H161.458C163.266 193.432 165.022 192.944 166.641 192.174C173.309 189.023 177.53 181.368 176.607 172.904C175.457 162.375 166.784 154.578 157.218 155.47H157.194C155.251 155.653 153.367 156.189 151.646 157.048C150.57 157.587 149.562 158.235 148.64 158.98C143.916 162.807 141.167 169.229 141.947 176.18Z" fill="black"/>
<path d="M144.351 164.082C144.64 163.652 144.97 163.247 145.338 162.872C147.544 160.066 152.589 159.017 155.891 159.266C158.422 159.496 160.853 160.308 162.964 161.63C165.373 163.084 167.095 165.31 169.484 166.837C174.015 169.754 180.891 169.671 185.442 166.667C185.699 166.497 185.943 166.311 186.173 166.11C186.636 165.661 186.946 165.092 187.061 164.477C187.235 163.71 187.172 162.913 186.878 162.177C185.891 159.592 182.599 157.32 180.521 155.935C176.308 153.165 171.353 151.539 166.207 151.239C151.532 150.296 145.274 161.975 144.351 164.082Z" fill="#8C52FF"/>
<path opacity="0.3" d="M145.368 164.45C148.522 160.209 152.569 159.017 155.871 159.266C158.403 159.496 160.833 160.308 162.945 161.63C165.353 163.084 167.076 165.31 169.465 166.837C173.996 169.754 180.872 169.671 185.423 166.667C185.679 166.497 185.923 166.311 186.153 166.111C186.617 165.661 186.926 165.092 187.042 164.478C187.216 163.71 187.152 162.913 186.859 162.178C185.334 163.82 180.892 167.776 174.875 165.858C167.372 163.443 165.541 156.267 157.52 156.331C151.148 156.4 147.224 161 145.368 164.45Z" fill="black"/>
<g opacity="0.3">
<path opacity="0.3" d="M178.374 154.67C176.233 153.253 173.825 152.224 171.276 151.639C168.724 151.034 166.081 150.832 163.457 151.041C160.838 151.276 158.273 151.884 155.851 152.844L154.953 153.212L154.074 153.622C153.482 153.879 152.924 154.201 152.352 154.496C151.779 154.79 151.251 155.153 150.703 155.48C150.155 155.807 149.642 156.188 149.119 156.552C151.271 155.208 153.569 154.078 155.975 153.18C158.375 152.282 160.905 151.72 163.482 151.51C166.054 151.281 168.648 151.436 171.167 151.97C172.432 152.231 173.672 152.588 174.874 153.037C176.095 153.475 177.267 154.022 178.374 154.67Z" fill="black"/>
</g>
<g opacity="0.3">
<path opacity="0.3" d="M162.391 151.381C163.007 149.463 163.376 147.483 163.492 145.484C163.655 143.492 163.689 141.491 163.645 139.504C163.601 137.517 163.452 135.511 163.255 133.524L162.895 130.552C162.737 129.563 162.599 128.574 162.401 127.59L162.85 133.57L163.028 136.551C163.058 137.544 163.122 138.538 163.127 139.531C163.211 141.519 163.171 143.506 163.092 145.511C163.058 146.505 162.974 147.494 162.865 148.483C162.778 149.458 162.62 150.426 162.391 151.381Z" fill="black"/>
</g>
<path opacity="0.3" d="M133.418 167.9C143.724 161.722 144.133 145.783 143.783 135.267C143.719 133.459 143.64 131.817 143.581 130.405C143.472 128.992 143.472 127.573 143.581 126.159C144.622 118.937 150.545 118.068 150.545 118.068H150.52C143.961 119.19 142.391 123.997 142.771 129.393C142.771 129.393 142.771 129.43 142.771 129.503C142.771 129.577 142.771 129.618 142.771 129.701V129.747C142.993 133.22 144.365 161.092 133.418 167.9Z" fill="black"/>
<path opacity="0.2" d="M134.257 113.463C135.12 114.305 146.29 112.148 148.24 113.114C149.064 113.518 149.425 114.954 150.254 116.527C152.584 119.977 155.861 120.52 156.063 120.547C152.154 117.787 151.063 111.145 153.003 106.945C154.943 102.745 161.888 103.835 162.283 103.96C161.098 103.474 159.825 103.207 158.531 103.173C154.775 102.989 150.195 103.973 148.911 106.191C146.305 110.712 135.13 109.696 134.104 110.883C133.077 112.069 133.393 112.621 134.257 113.463Z" fill="black"/>
<path d="M143.003 109.448C143.682 110.616 143.953 111.952 143.778 113.27L134.316 114.264C133.832 113.742 133.475 113.13 133.268 112.468C133.061 111.806 133.009 111.11 133.116 110.428C133.116 110.428 142.49 109.549 143.003 109.448Z" fill="#263238"/>
<path d="M171.735 109.121C171.735 109.121 172.678 107.254 171.547 106.071C174.075 105.86 175.639 105.611 177.268 105.391C177.51 106.076 177.629 106.734 176.775 107.778C175.921 108.822 171.735 109.121 171.735 109.121Z" fill="#263238"/>
<path d="M176.992 120.81C178.631 123.298 180.032 127.282 180.156 133.644" stroke="#8C52FF" stroke-linecap="round" stroke-linejoin="round"/>
<path d="M171.597 116.707C172.789 116.964 173.885 117.516 174.771 118.303" stroke="#8C52FF" stroke-linecap="round" stroke-linejoin="round"/>
<path d="M97.9876 92.7266L104.217 93.435C104.217 93.435 105.303 104.102 106.31 106.177C106.31 106.177 125.466 108.633 133.319 108.417L137.302 110.938L137.44 115.326L133.536 115.432L132.277 112.672C132.277 112.672 129.642 112.566 129.034 111.182C129.034 111.182 108.679 115.782 101.181 110.538C101.186 110.519 96.6598 104.332 97.9876 92.7266Z" fill="#FFC3BD"/>
<path opacity="0.2" d="M148.709 174.8C148.887 180.587 152.954 185.168 157.796 185.04C158.447 185.021 159.091 184.918 159.711 184.731C163.591 183.581 166.384 179.317 166.231 174.326C166.078 169.496 163.221 165.503 159.464 164.395C158.714 164.17 157.928 164.066 157.139 164.087C152.297 164.22 148.526 169.032 148.709 174.8Z" fill="#FAFAFA"/>
<path d="M153.166 174.8C153.319 179.74 156.128 183.802 159.711 184.745C163.591 183.595 166.384 179.331 166.231 174.34C166.078 169.51 163.221 165.517 159.464 164.408C155.733 165.351 153.013 169.684 153.166 174.8Z" fill="#263238"/>
<path opacity="0.2" d="M72.6564 175.26C72.8391 181.047 76.9062 185.633 81.7434 185.5C82.3945 185.484 83.0396 185.38 83.6586 185.191C87.5431 184.041 90.3369 179.782 90.1789 174.786C90.0309 169.961 87.173 165.963 83.4167 164.855C82.6662 164.63 81.88 164.526 81.0919 164.547C76.2498 164.68 72.4787 169.482 72.6564 175.26Z" fill="#FAFAFA"/>
<path d="M77.1136 175.26C77.2715 180.196 80.0751 184.257 83.6586 185.2C87.5431 184.05 90.3369 179.791 90.1789 174.795C90.0309 169.97 87.173 165.972 83.4167 164.864C79.6803 165.807 76.9556 170.14 77.1136 175.26Z" fill="#263238"/>
<path d="M65.0254 160.015C64.9415 165.705 74.2358 169.473 89.7889 171.846C93.9813 172.533 98.2657 172.58 102.474 171.984C109.384 170.922 112.761 168.199 112.761 168.199C112.761 168.199 111.003 148.534 93.6142 146.04C81.768 144.348 72.8538 148.8 68.3325 153.598C66.2051 155.852 65.0501 158.194 65.0254 160.015Z" fill="#8C52FF"/>
<path opacity="0.3" d="M65.0255 160.015C64.9416 165.706 74.2359 169.473 89.789 171.847C93.9814 172.534 98.2658 172.58 102.474 171.985C101.729 166.644 98.3824 152.637 83.8363 151.183C77.237 150.521 72.1431 151.763 68.3326 153.598C66.2052 155.852 65.0502 158.194 65.0255 160.015Z" fill="#8C52FF"/>
<g opacity="0.3">
<path opacity="0.3" d="M111.754 168.286C111.434 165.609 110.749 162.981 109.715 160.466C108.699 157.925 107.296 155.533 105.549 153.364C104.667 152.285 103.675 151.289 102.588 150.387C101.51 149.471 100.323 148.675 99.0487 148.014C96.5135 146.681 93.7042 145.865 90.8058 145.617C92.226 145.839 93.6231 146.174 94.9815 146.62C95.6676 146.813 96.3142 147.112 96.9559 147.365C97.5998 147.653 98.2274 147.97 98.8365 148.317C99.4584 148.649 100.031 149.049 100.618 149.421C101.206 149.794 101.749 150.236 102.267 150.7C103.321 151.593 104.281 152.577 105.135 153.64C106.869 155.767 108.282 158.106 109.335 160.59C109.882 161.828 110.353 163.093 110.747 164.381C111.166 165.663 111.502 166.967 111.754 168.286Z" fill="black"/>
</g>
<path d="M135.091 161.791L134.064 165.039L123.299 164.201L123.156 159.661L135.091 161.791Z" fill="#67313B"/>
<path d="M70.9979 139.642L47.3105 138.745" stroke="#8C52FF" stroke-linecap="round" stroke-linejoin="round"/>
<path d="M39.4822 134.725L35.9629 134.591" stroke="#8C52FF" stroke-linecap="round" stroke-linejoin="round"/>
<path d="M59.6454 135.488L42.1821 134.826" stroke="#8C52FF" stroke-linecap="round" stroke-linejoin="round"/>
<path d="M47.4241 146.915L32.7891 146.363" stroke="#8C52FF" stroke-linecap="round" stroke-linejoin="round"/>
<path d="M56.4716 147.26L50.0943 147.016" stroke="#8C52FF" stroke-linecap="round" stroke-linejoin="round"/>
</svg>