<svg width="1015" height="992" viewBox="0 0 1015 992" fill="none" xmlns="http://www.w3.org/2000/svg">
<g opacity="0.64">
<path d="M515.636 938.619C755.367 938.619 949.707 745.044 949.707 506.258C949.707 267.472 755.367 73.8978 515.636 73.8978C275.905 73.8978 81.5648 267.472 81.5648 506.258C81.5648 745.044 275.905 938.619 515.636 938.619Z" fill="#CF9F66"/>
<path d="M516.445 876.458C721.263 876.458 887.3 711.075 887.3 507.064C887.3 303.053 721.263 137.67 516.445 137.67C311.627 137.67 145.589 303.053 145.589 507.064C145.589 711.075 311.627 876.458 516.445 876.458Z" fill="#89643D"/>
<path d="M473.672 774.157C635.589 774.157 766.848 643.415 766.848 482.136C766.848 320.858 635.589 190.115 473.672 190.115C311.755 190.115 180.496 320.858 180.496 482.136C180.496 643.415 311.755 774.157 473.672 774.157Z" fill="#C45C00"/>
<path d="M159.355 410.434C159.355 410.434 240.111 337.769 327.56 353.06C415.008 368.352 428.045 454.16 392.583 486.844C392.583 486.844 381.006 485.454 374.868 466.45C368.73 447.446 349.763 406.296 312.144 406.422C274.526 406.548 234.322 412.456 152.091 477.887C149.947 455.145 152.417 432.206 159.355 410.434Z" fill="#C98019"/>
<path d="M465.108 326.142C465.108 326.142 580.199 250.791 654.96 331.608C669.867 358.599 687.82 383.805 708.47 406.738C730.53 426.263 786.181 442.976 783.009 510.618C779.837 578.26 748.214 600.66 730.483 602.24C712.752 603.82 612.283 589.223 589.636 620.817C566.989 652.411 577.678 729.231 548.877 765.074C520.076 800.917 385.224 750.288 424.222 651.337C463.221 552.385 396.659 496.938 384.225 470.463C371.791 443.987 339.121 377.703 428.203 346.647C517.285 315.59 497.398 380.594 473.878 388.366C450.359 396.138 405.255 401.304 413.914 448.536C422.573 495.769 480.143 517.095 476.146 585.969C472.149 654.844 443.587 672.473 457.194 699.802C470.801 727.13 517.19 752.611 527.118 722.612C537.046 692.614 525.152 605.02 585.211 569.746C645.27 534.471 710.627 574.295 729.848 555.402C749.07 536.509 746.184 488.076 707.503 460.937C672.262 434.709 643.395 400.923 623.036 362.08C604.004 327.943 536.887 328.575 478.715 363.376C420.543 398.176 412.344 357.847 465.108 326.142Z" fill="#EB9800"/>
<path d="M423.303 288.625C423.303 288.625 377.564 231.914 426.76 177.936C475.956 123.958 631.584 163.371 616.85 248.358C602.117 333.346 620.609 330.581 643.811 345.873C667.014 361.164 707.503 357.941 738.444 376.661C769.386 395.38 795.363 434.098 753.114 487.681C733.4 514.145 704.756 532.629 672.45 539.734C640.145 546.839 606.35 542.087 577.281 526.352C510.418 493.921 462.11 468.725 428.853 556.477C395.596 644.228 378.865 709.611 329.494 713.624C280.124 717.636 268.483 700.007 288.07 678.034C307.656 656.06 329.304 678.65 348.557 649.757C367.811 620.865 367.208 578.987 410.567 516.179C453.927 453.37 514.542 460.084 574.474 492.926C585.263 499.702 597.307 504.254 609.892 506.314C622.478 508.373 635.351 507.897 647.749 504.915C660.148 501.932 671.819 496.504 682.075 488.95C692.33 481.396 700.96 471.871 707.455 460.937C732.021 423.957 723.441 396.691 621.925 386.297C621.925 386.297 550.479 365.761 561.802 298.514C573.126 231.266 553.714 195.155 511.274 193.78C468.835 192.406 434.23 226.954 453.737 289.193C473.244 351.433 423.303 288.625 423.303 288.625Z" fill="#D68B00"/>
<path d="M754.795 412.298C754.795 412.298 773.018 329.602 702.634 284.897C632.25 240.191 568.844 313.047 536.301 379.678C503.757 446.309 532.13 506.527 491.641 534.724C451.152 562.922 380.117 529.353 336.219 535.277C292.32 541.201 182.938 610.391 321.945 730.179C460.953 849.967 625.161 715.646 646.65 683.278C668.14 650.91 674.943 615.541 703.03 590.85C731.117 566.16 677.449 559.036 663.62 574.848C643.887 598.959 627.363 625.507 614.456 653.833C599.135 687.006 517.095 727.588 458.066 728.568C399.038 729.547 317.521 699.091 306.467 630.343C295.413 561.595 395.438 584.295 417.482 593.82C439.527 603.346 570.938 583.631 570.938 470.652C570.938 357.673 640.608 320.582 687.329 328.038C734.051 335.494 716.986 424.004 703.538 436.736C690.089 449.468 631.996 499.244 557.631 440.338L543.501 479.198C543.501 479.198 605.86 543.539 672.897 517.932C739.935 492.325 754.795 412.298 754.795 412.298Z" fill="#EBBA1D"/>
<path d="M357.328 502.246C357.328 502.246 260.125 431.981 338.455 325.321C416.784 218.66 561.818 235.768 570.937 284.154C580.057 332.54 545.8 378.509 586.797 439.169C627.793 499.829 711.42 492.626 746.977 582.146C782.533 671.667 632.789 782.293 539.346 697.021C445.902 611.75 523.772 554.691 548.861 541.343C573.951 527.995 584.196 552.164 570.382 572.937C556.569 593.71 497.112 638.052 581.198 684.731C665.285 731.411 749.419 631.101 698.891 579.113C648.363 527.126 635.977 547.63 572.65 480.983C509.324 414.336 534.001 354.608 534.207 329.807C534.413 305.006 504.756 266.778 453.61 289.162C402.463 311.546 285.897 404.195 395.327 497.475C395.501 497.507 398.752 517.095 357.328 502.246Z" fill="#FFCA1F"/>
<path d="M772.796 404.921C772.796 404.921 672.659 347.247 607.414 460.463C542.169 573.679 740.791 641.385 754.494 590.598C768.196 539.811 750.133 559.494 725.852 563.411C701.571 567.329 614.836 569.967 629.855 476.908C642.939 396.233 742.79 411.43 764.913 431.444C766.356 432.881 768.113 433.967 770.047 434.616C771.98 435.265 774.039 435.461 776.061 435.187C778.082 434.913 780.014 434.178 781.703 433.038C783.393 431.898 784.795 430.385 785.8 428.617C788.703 422.835 786.974 414.952 772.796 404.921Z" fill="#FFD85E"/>
<path d="M521.773 627.847C521.773 627.847 587.336 591.293 577.868 533.966C568.4 476.639 558.837 489.071 560.423 500.018C562.009 510.966 576.504 549.257 554.618 578.45C544.09 595.51 529.792 609.951 512.813 620.675C489.96 638.052 517.127 631.038 521.773 627.847Z" fill="#FFE38A"/>
<path d="M500.443 254.946C500.443 254.946 551.637 247.569 563.039 281.248C574.442 314.927 567.433 295.354 551.764 285.039C536.094 274.723 467.487 266.967 500.443 254.946Z" fill="#FFD85E"/>
<path d="M582.245 828.483C725.252 828.483 841.181 713.01 841.181 570.567C841.181 428.124 725.252 312.652 582.245 312.652C439.239 312.652 323.309 428.124 323.309 570.567C323.309 713.01 439.239 828.483 582.245 828.483Z" fill="#D96600"/>
<path d="M709.263 824.455C709.263 824.455 755.112 740.321 723.822 668.713C692.531 597.106 615.835 603.772 595.012 640.879C595.012 640.879 598.628 650.5 616.279 651.811C633.931 653.122 673.373 660.799 681.017 692.993C688.662 725.187 691.96 760.777 652.629 844.643C672.675 841.765 691.935 834.899 709.263 824.455Z" fill="#C98019"/>
<path d="M718.43 545.514C718.43 545.514 759.49 431.476 674.309 384.385C647.954 377.234 622.504 367.111 598.454 354.213C577.059 339.396 551.113 295.307 493.48 312.099C435.847 328.891 423.128 360.469 425.428 375.966C427.727 391.462 461.175 474.27 438.639 500.192C416.102 526.115 347.685 532.908 322.77 564.959C297.855 597.011 369.46 701.824 446.616 647.956C523.772 594.089 585.401 639.489 610.792 644.639C636.183 649.789 700.176 663.927 708.47 581.357C716.764 498.786 664.857 529.227 663.033 550.963C661.209 572.7 666.205 612.334 623.622 614.735C581.04 617.137 550.796 572.321 492.323 590.013C433.849 607.706 424.444 635.824 398.15 629.79C371.855 623.755 340.168 589.445 363.973 574.738C387.778 560.031 465.726 552.022 483.6 493.352C501.473 434.683 453.657 387.023 465.948 366.724C478.239 346.425 520.584 338.78 552.001 366.219C581.913 390.913 617.021 408.584 654.723 417.922C688.027 427.116 701.476 484.648 683.555 541.58C665.634 598.512 702.095 597.201 718.43 545.514Z" fill="#EB9800"/>
<path d="M759.474 573.427C775.782 580.968 794.248 582.502 811.585 577.755C828.922 573.008 844.007 562.289 854.154 547.504C890.472 494.237 824.212 369.347 754.034 399.582C683.856 429.817 682.381 413.42 664.381 396.754C646.381 380.089 640.719 344.83 618.214 322.256C595.71 299.683 556.886 285.497 519.49 332.73C500.786 355.08 490.809 383.403 491.392 412.493C491.975 441.584 503.078 469.488 522.662 491.077C564.483 541.533 596.233 577.613 527.419 624.261C458.606 670.909 405.826 698.775 412.598 741.821C419.369 784.868 436.989 791.171 451.865 769.861C466.741 748.551 442.762 734.681 463.681 712.281C484.599 689.881 520.774 681.651 565.942 631.527C611.109 581.404 592.712 530.98 551.986 486.56C543.908 478.738 537.487 469.382 533.103 459.046C528.718 448.71 526.459 437.602 526.459 426.381C526.459 415.16 528.718 404.053 533.103 393.717C537.487 383.381 543.908 374.025 551.986 366.203C578.756 337.532 604.036 339.206 634.058 423.846C634.058 423.846 666.554 480.715 722.188 457.019C777.823 433.324 812.952 442.486 822.943 478.487C832.934 514.488 810.414 551.311 752.67 547.535C694.926 543.76 759.474 573.427 759.474 573.427Z" fill="#D68B00"/>
<path d="M584.069 315.701C584.069 315.701 651.551 282.969 704.695 333.867C757.84 384.764 708.2 454.097 657.546 495.753C606.891 537.41 549.099 525.641 533.176 566.049C517.254 606.458 560.946 660.294 564.895 699.122C568.844 737.951 531.987 845.78 399.958 751.821C267.928 657.861 349.572 489.593 372.997 464.46C396.421 439.327 425.507 426.2 440.97 397.054C456.433 367.909 473.688 412.33 462.935 427.448C446.246 449.326 426.795 468.97 405.064 485.896C379.689 505.848 361.705 584.437 373.108 635.113C384.511 685.79 427.68 749.167 489.214 744.365C550.749 739.562 510.45 658.73 497.667 641.874C484.885 625.019 474.56 508.501 571.952 485.075C669.345 461.648 686.885 394.337 670.709 355.951C654.532 317.565 581.896 350.501 573.665 364.639C565.434 378.777 534.62 438.79 600.817 490.082L570.271 510.239C570.271 510.239 501.886 470.273 510.006 407.559C518.126 344.846 584.069 315.701 584.069 315.701Z" fill="#EBBA1D"/>
<path d="M589.049 674.226C589.049 674.226 669.789 742.753 745.438 653.69C821.087 564.628 776.285 444.113 732.751 446.341C689.217 448.568 656.626 487.413 595.853 464.918C535.079 442.423 523.93 369.442 439.384 357.499C354.838 345.557 290.512 496.654 383.4 558.893C476.289 621.133 509.292 542.67 515.588 518.406C521.884 494.142 498.92 490.43 483.869 506.558C468.819 522.687 442.952 582.731 385.272 520.507C327.591 458.283 396.595 365.54 451.881 397.971C507.167 430.402 492.069 445.219 562.643 485.549C633.217 525.878 679.59 492.373 700.921 487.128C722.252 481.884 761.345 499.244 752.67 547.614C743.995 595.984 688.297 714.809 585.211 640.595C585.211 640.595 567.67 641.874 589.049 674.226Z" fill="#FFCA1F"/>
<path d="M861.751 624.782C836.751 615.911 814.877 599.996 798.789 578.971C764.771 539.937 720.254 498.676 630.41 538.279C540.567 577.881 553.413 680.04 621.465 723.102C621.465 723.102 643.843 728.789 619.372 701.097C594.901 673.405 570.922 623.613 617.786 586.854C664.651 550.095 708.962 548.499 748.007 582.115C787.053 615.731 805.434 655.381 851.442 665.412C856.891 652.456 860.365 638.761 861.751 624.782Z" fill="#FFD03B"/>
<path d="M720.761 800.001C720.761 800.001 839.627 769.75 834.948 621.196C834.948 621.196 826.242 542.939 739.269 553.854C652.296 564.77 620.102 539.969 592.3 510.46C564.499 480.952 508.943 459.563 455.798 521.866C402.654 584.168 456.639 778.359 593.014 745.518C729.388 712.676 599.262 827.772 577.662 825.308C556.061 822.843 546.752 817.978 515.128 791.186C483.505 764.395 415.294 681.145 336.663 688.507C336.663 688.507 329.716 694.604 350.73 716.578C371.744 738.551 396.024 707.1 472.403 781.677C548.782 856.254 575.188 883.172 661.415 797.584C747.643 711.997 664.587 705.251 645.128 708.553C625.668 711.855 552.794 733.307 511.354 687.401C469.913 641.495 464.537 565.054 499.332 535.862C534.128 506.669 556.014 516.905 583.958 550.347C611.902 583.789 689.502 601.75 739.776 585.653C790.051 569.556 828.43 638.952 780.027 724.476C731.625 810.001 610.078 786.463 585.211 783.525C564.483 781.029 490.959 771.409 458.13 793.398C455.75 795.089 453.809 797.319 452.467 799.905C451.124 802.492 450.419 805.359 450.41 808.27C450.401 811.181 451.088 814.053 452.413 816.648C453.739 819.242 455.666 821.485 458.035 823.191C463.844 828.45 471.507 831.204 479.35 830.852C492.957 827.883 482.03 805.577 642.622 812.023C661.517 812.76 680.423 810.841 698.78 806.32C706.075 804.472 713.672 802.371 720.761 800.001Z" fill="#FFD85E"/>
<path d="M586.797 298.766C586.797 298.766 657.276 372.427 573.221 451.648C489.167 530.87 389.633 375.144 430.487 352.886C471.341 330.629 458.209 350.154 459.858 371.748C461.508 393.342 477.304 468.109 554.333 435.883C621.148 407.954 587.336 325.716 565.434 310.962C563.897 310.025 562.597 308.748 561.636 307.229C560.675 305.711 560.079 303.991 559.895 302.206C559.711 300.42 559.943 298.616 560.574 296.934C561.205 295.253 562.217 293.739 563.531 292.511C567.988 288.893 575.14 288.72 586.797 298.766Z" fill="#FFD85E"/>
<path d="M446.695 559.683C446.695 559.683 464.585 496.053 515.953 492.246C567.322 488.439 558.599 499.15 548.845 500.145C539.092 501.14 503.075 496.591 482.458 521.36C469.94 533.907 460.459 549.131 454.736 565.876C444.491 588.986 444.903 564.296 446.695 559.683Z" fill="#FFE38A"/>
<path d="M772.494 500.54C772.494 500.54 768.244 455.234 736.842 452.47C705.441 449.705 723.774 451.633 735.923 462.896C748.071 474.159 769.053 531.186 772.494 500.54Z" fill="#FFD85E"/>
<path d="M339.391 190.163C339.391 190.163 354.536 220.082 406.73 247.032C458.923 273.981 516.334 311.799 496.478 420.797C476.622 529.796 360.341 542.907 294.715 479.735C294.715 479.735 282.471 456.719 319.582 476.197C356.693 495.674 418.085 508.691 446.219 447.494C474.354 386.297 464.347 337.326 416.769 303.474C369.19 269.621 320.534 260.017 297.221 212.247C297.252 212.215 330.731 189.42 339.391 190.163Z" fill="#FFD03B"/>
<path d="M183.303 391.336C183.303 391.336 185.126 252.971 350.508 218.66C350.508 218.66 439.321 207.381 450.422 305.638C461.524 403.894 497.461 432.582 537.49 455.203C577.519 477.824 615.899 533.034 561.184 607.879C506.469 682.725 277.539 675.19 277.539 516.953C277.539 358.715 185 531.976 193.484 555.007C201.969 578.039 209.804 586.949 247.819 614.483C285.834 642.017 395.977 694.652 408.744 782.814C408.744 782.814 403.843 792.039 373.98 774.916C344.117 757.792 372.394 722.786 269.673 658.856C166.952 594.926 130.11 573.174 201.811 455.898C273.511 338.622 302.993 427.858 304.516 450.053C306.038 472.248 301.725 557.851 363.481 591.072C425.237 624.292 511.084 609.759 534.064 563.948C557.045 518.137 539.901 496.764 495.542 475.012C451.183 453.26 410.758 372.933 415.103 313.536C419.449 254.14 332.635 230.54 251.006 306.349C169.378 382.158 227.709 509.054 237.653 535.514C245.931 557.63 276.112 635.603 260.538 677.449C259.301 680.505 257.352 683.225 254.851 685.383C252.35 687.541 249.37 689.075 246.157 689.859C242.943 690.643 239.588 690.654 236.37 689.892C233.151 689.129 230.161 687.615 227.645 685.474C220.296 680.5 215.217 672.835 213.515 664.148C213.182 648.446 240.698 654.496 190.883 480.162C185.056 459.642 182.152 438.409 182.256 417.085C182.288 408.618 182.557 399.661 183.303 391.336Z" fill="#FFE38C"/>
<path d="M421.162 240.966C421.162 240.966 447.726 255.404 453.166 326.395C455.259 353.513 464.297 379.644 479.418 402.292C494.539 424.939 515.238 443.347 539.536 455.756C550.995 461.726 561.071 470.022 569.114 480.109C577.157 490.196 582.988 501.85 586.232 514.32C589.476 526.789 590.061 539.797 587.948 552.505C585.835 565.213 581.073 577.34 573.967 588.102C573.967 588.102 614.44 502.672 534.699 459.958C454.958 417.243 448.947 358.858 445.315 325.194C441.684 291.531 441.081 268.041 421.162 240.966Z" fill="#FFF4D1"/>
<path d="M721.142 307.944C711.965 294.173 698.325 283.953 682.496 278.991C666.668 274.029 649.609 274.625 634.169 280.679C634.169 280.679 616.454 291.105 639.799 289.509C653.241 287.046 667.073 287.723 680.208 291.487C693.343 295.25 705.422 301.998 715.496 311.198C739.665 335.225 724.361 311.957 721.142 307.944Z" fill="#FFD03B"/>
<path d="M557.663 561.437C557.663 561.437 576.98 532.56 562.421 508.486C547.862 484.411 554.666 480.241 562.58 485.549C570.05 492.517 575.81 501.104 579.416 510.644C583.021 520.185 584.374 530.424 583.371 540.569C582.182 570.583 563.23 612.777 531.035 623.202C498.841 633.628 518.998 603.946 557.663 561.437Z" fill="#FFF0C2"/>
<path d="M225.06 425.062C225.06 425.062 254.051 392.173 273.384 401.004C280.751 405.745 286.914 412.125 291.386 419.641C295.858 427.157 298.517 435.605 299.155 444.319C299.948 452.344 302.327 488.439 303.913 497.254C305.499 506.069 294.255 503.683 293.446 487.634C292.637 471.584 293.446 415.442 270.894 411.43C262.752 410.081 254.392 411.105 246.82 414.378C239.248 417.652 232.788 423.035 228.216 429.88C222.65 437.905 221.841 429.88 225.06 425.062Z" fill="#FFF0C2"/>
<path opacity="0.51" d="M861.354 475.881C902.953 660.215 716.638 902.397 517.904 846.128C335.521 794.456 155.612 720.101 155.612 531.17C155.612 342.239 318.773 150.07 508.483 150.07C698.193 150.07 831.618 344.072 861.354 475.881Z" fill="#FFF276"/>
<path d="M690.866 218.202C690.866 218.202 669.059 197.461 656.182 220.177C643.304 242.893 668.076 245.847 679.971 247.821C679.971 247.821 666.094 261.644 684.919 267.567C703.744 273.491 731.514 265.593 763.232 300.141C794.951 334.688 843.513 431.46 822.705 485.754C801.898 540.048 856.406 586.459 846.494 621.023C836.582 655.586 823.688 706.91 798.916 726.656C774.144 746.402 746.374 776.021 775.127 772.072C775.127 772.072 858.389 696.058 867.302 544.992C874.569 498.104 866.944 450.126 845.495 407.765C823.008 368.252 797.839 330.314 770.163 294.217C763.232 282.369 755.303 250.775 690.866 218.202Z" fill="#FFF2FF"/>
<path d="M324.118 775.042C324.118 775.042 300.329 754.301 327.1 743.448C353.87 732.596 372.695 767.144 372.695 777.996C372.695 788.849 394.502 804.661 435.134 814.534C475.765 824.407 478.747 809.59 499.57 815.514C520.394 821.437 553.096 849.082 585.798 843.158C618.5 837.234 627.429 848.103 603.64 852.052C579.85 856.001 436.133 841.184 324.118 775.042Z" fill="#FFF2FF"/>
<path d="M599.183 296.191C610.403 296.191 619.499 288.016 619.499 277.93C619.499 267.845 610.403 259.669 599.183 259.669C587.963 259.669 578.867 267.845 578.867 277.93C578.867 288.016 587.963 296.191 599.183 296.191Z" fill="#FFF2FF"/>
<path d="M441.002 413.878C441.565 431.74 438.433 449.526 431.801 466.13C425.168 482.735 415.177 497.802 402.448 510.396C389.72 522.99 374.526 532.841 357.812 539.336C341.098 545.831 323.221 548.832 305.293 548.152C267.139 547.881 230.604 532.762 203.49 506.023C176.376 479.285 160.833 443.046 160.18 405.048C160.18 326.948 227.297 270.316 305.705 270.316C384.114 270.316 441.002 335.842 441.002 413.878Z" fill="#965030"/>
<path d="M305.293 532.228C374.821 532.228 431.185 476.087 431.185 406.833C431.185 337.579 374.821 281.437 305.293 281.437C235.765 281.437 179.401 337.579 179.401 406.833C179.401 476.087 235.765 532.228 305.293 532.228Z" fill="#FFB95C"/>
<path d="M305.293 524.219C368.226 524.219 419.243 473.403 419.243 410.719C419.243 348.034 368.226 297.218 305.293 297.218C242.36 297.218 191.343 348.034 191.343 410.719C191.343 473.403 242.36 524.219 305.293 524.219Z" fill="#FFE9CC"/>
<path d="M305.293 517.711C361.429 517.711 406.936 472.383 406.936 416.469C406.936 360.554 361.429 315.227 305.293 315.227C249.157 315.227 203.65 360.554 203.65 416.469C203.65 472.383 249.157 517.711 305.293 517.711Z" fill="url(#paint0_linear_276_613)"/>
<path opacity="0.47" d="M199.495 473.906C199.495 473.906 257.08 347.847 344.799 291.152C344.799 291.152 360.198 286.413 372.251 305.827C384.304 325.242 228.28 427.226 271.814 442.565C315.348 457.904 401.052 342.508 428.504 389.203C428.504 389.203 437.211 409.882 401.052 439.896C364.892 469.91 326.703 520.665 324.705 531.328C314.936 532.518 305.091 532.967 295.254 532.671C323.018 492.423 355.624 455.712 392.345 423.356C420.464 404.021 403.066 391.336 366.97 420.687C330.874 450.037 253.131 487.397 249.769 444.034C246.407 400.672 314.063 342.65 328.797 332.651C343.53 322.651 334.823 316.633 320.756 329.317C271.567 372.683 233.462 427.101 209.597 488.06C205.67 483.765 202.278 479.013 199.495 473.906Z" fill="#FF9100"/>
<path d="M199.495 473.906C221.328 429.709 248.299 388.221 279.855 350.296C321.818 304.943 343.689 288.483 354.854 292.037C351.972 290.504 348.989 289.169 345.925 288.04C341.008 286.255 308.417 305.827 267.801 352.965C239.218 388.538 214.939 427.339 195.467 468.567L199.495 473.906Z" fill="#FFE9CC"/>
<path d="M165.112 441.949C156.563 411.062 159.486 378.139 173.344 349.226C187.202 320.312 211.067 297.348 240.555 284.549C269.942 269.171 303.985 265.113 336.185 273.149C368.385 281.186 396.485 300.754 415.119 328.117C415.119 328.117 341.452 235.184 240.555 287.219C212.47 300.951 189.794 323.632 176.126 351.664C162.458 379.696 158.582 411.473 165.112 441.949Z" fill="#70270F"/>
<path d="M348.399 167.636C363.613 158.164 380.621 151.911 398.366 149.266C416.11 146.62 434.211 147.639 451.543 152.259C468.875 156.878 485.068 165 499.114 176.119C513.161 187.238 524.76 201.116 533.192 216.891C552.167 249.885 557.433 288.963 547.863 325.773C538.294 362.582 514.649 394.204 481.982 413.878C414.215 453.165 331.318 423.878 291.86 356.393C252.402 288.909 280.711 206.939 348.399 167.636Z" fill="#965030"/>
<path d="M410.52 413.436C480.048 413.436 536.412 357.294 536.412 288.04C536.412 218.786 480.048 162.645 410.52 162.645C340.992 162.645 284.628 218.786 284.628 288.04C284.628 357.294 340.992 413.436 410.52 413.436Z" fill="#FFB95C"/>
<path d="M413.898 399.582C476.831 399.582 527.848 348.766 527.848 286.081C527.848 223.397 476.831 172.581 413.898 172.581C350.965 172.581 299.948 223.397 299.948 286.081C299.948 348.766 350.965 399.582 413.898 399.582Z" fill="#FFE9CC"/>
<path d="M418.878 384.433C475.014 384.433 520.521 339.105 520.521 283.191C520.521 227.276 475.014 181.948 418.878 181.948C362.742 181.948 317.235 227.276 317.235 283.191C317.235 339.105 362.742 384.433 418.878 384.433Z" fill="url(#paint1_linear_276_613)"/>
<path opacity="0.47" d="M522.011 345.335C522.011 345.335 383.654 359.189 290.338 312.162C286.688 307.862 284.596 302.465 284.398 296.838C284.199 291.211 285.906 285.681 289.243 281.137C299.964 261.028 467.011 343.993 458.415 298.798C449.819 253.603 306.593 237.901 333.285 190.763C333.285 190.763 346.845 172.865 391.076 188.899C435.308 204.933 498.492 212.278 508.769 208.629C514.716 216.445 520.061 224.699 524.755 233.32C475.842 229.694 427.56 220.107 380.99 204.775C350.064 190.305 347.828 211.662 391.473 228.028C435.118 244.393 506.628 292.463 470.69 317.154C434.753 341.844 350.381 312.826 334.3 305.18C318.218 297.534 317.378 308.055 335.442 313.773C397.816 334.296 464.205 339.711 529.1 329.57C527.388 335.092 525.008 340.386 522.011 345.335Z" fill="#FF9100"/>
<path d="M522.011 345.335C472.679 348.776 423.112 346.432 374.329 338.353C313.857 325.052 288.577 314.5 286.056 303.11C286.158 306.364 286.497 309.605 287.071 312.81C287.99 317.928 321.374 336.142 382.703 347.389C427.947 354.093 473.827 355.467 519.395 351.48L522.011 345.335Z" fill="#FFE9CC"/>
<path d="M511.528 391.02C489.032 413.899 459.008 427.932 426.964 430.543C394.92 433.155 363.006 424.17 337.075 405.237C308.941 387.684 288.286 360.421 279.059 328.657C269.831 296.893 272.678 262.857 287.055 233.051C287.055 233.051 243.489 343.219 339.391 403.879C365.423 421.135 396.495 429.241 427.678 426.912C458.861 424.583 488.371 411.951 511.528 391.02Z" fill="#70270F"/>
<path d="M663.604 369.157C652.115 382.884 637.913 394.109 621.882 402.135C605.851 410.161 588.334 414.816 570.42 415.81C552.506 416.805 534.577 414.117 517.751 407.914C500.924 401.712 485.558 392.127 472.609 379.757C444.266 354.302 427.04 318.816 424.613 280.88C422.186 242.945 434.75 205.568 459.621 176.735C511.703 118.366 599.643 120.435 658.259 172.297C716.875 224.158 715.686 310.772 663.604 369.157Z" fill="#965030"/>
<path d="M566.893 399.456C636.421 399.456 692.785 343.314 692.785 274.06C692.785 204.806 636.421 148.664 566.893 148.664C497.365 148.664 441.002 204.806 441.002 274.06C441.002 343.314 497.365 399.456 566.893 399.456Z" fill="#FFB95C"/>
<path d="M564.308 390.467C627.241 390.467 678.258 339.651 678.258 276.967C678.258 214.282 627.241 163.466 564.308 163.466C501.376 163.466 450.359 214.282 450.359 276.967C450.359 339.651 501.376 390.467 564.308 390.467Z" fill="#FFE9CC"/>
<path d="M560.47 382.506C616.606 382.506 662.113 337.178 662.113 281.263C662.113 225.349 616.606 180.021 560.47 180.021C504.335 180.021 458.828 225.349 458.828 281.263C458.828 337.178 504.335 382.506 560.47 382.506Z" fill="url(#paint2_linear_276_613)"/>
<path opacity="0.47" d="M443.032 254.33C443.032 254.33 570.145 198.188 673.532 213.842C678.345 216.792 682.021 221.27 683.969 226.554C685.916 231.838 686.022 237.621 684.269 242.972C680.383 265.419 495.685 238.485 517.999 278.752C540.313 319.018 681.35 289.446 670.725 342.524C670.725 342.524 663.445 363.739 616.39 362.254C569.336 360.769 506.961 373.407 498.397 380.057C490.295 374.483 482.634 368.298 475.48 361.559C523.089 349.823 571.961 343.935 621.006 344.024C654.929 348.179 650.361 327.185 603.766 325.194C557.172 323.204 474.179 299.746 500.585 265.166C526.991 230.587 616.248 231.993 633.931 234.173C651.614 236.353 649.108 226.195 630.156 226.369C564.463 226.246 499.686 241.718 441.192 271.501C441.112 265.724 441.73 259.959 443.032 254.33Z" fill="#FF9100"/>
<path d="M443.032 254.33C488.824 235.737 536.651 222.567 585.528 215.09C647.142 208.945 674.467 211.109 680.446 221.156C679.323 218.1 677.983 215.128 676.434 212.263C673.944 207.682 636.548 200.747 574.744 209.103C529.652 216.781 485.629 229.735 443.587 247.695L443.032 254.33Z" fill="#FFE9CC"/>
<path d="M438.686 207.587C452.886 178.836 477.023 156.154 506.664 143.705C536.305 131.256 569.459 129.876 600.039 139.818C632.276 147.743 660.449 167.223 679.174 194.535C697.899 221.847 705.861 255.075 701.539 287.866C701.539 287.866 708.438 169.658 598.327 141.809C568.163 133.479 536.071 135.428 507.147 147.346C478.223 159.264 454.127 180.467 438.686 207.587Z" fill="#70270F"/>
<path d="M846.891 533.113C834.456 560.367 811.789 581.679 783.757 592.476C755.724 603.272 724.56 602.691 696.952 590.858C669.344 579.025 647.494 556.884 636.091 529.185C624.688 501.487 624.641 470.44 635.961 442.707C674.103 356.614 742.219 320.771 800.486 345.746C858.753 370.721 880.512 455.203 846.891 533.113Z" fill="#FFF0DB"/>
<path d="M736.716 587.707C786.072 587.707 826.083 547.853 826.083 498.692C826.083 449.53 786.072 409.676 736.716 409.676C687.359 409.676 647.348 449.53 647.348 498.692C647.348 547.853 687.359 587.707 736.716 587.707Z" fill="#FFBC00"/>
<path d="M657.101 403.989C681.533 385.764 709.619 372.996 739.449 366.551C769.279 360.107 800.152 360.139 829.969 366.645L838.596 376.029C838.596 376.029 755.366 356.141 646.698 421.334L657.101 403.989Z" fill="#FFF8F0"/>
<path opacity="0.24" d="M735.97 561.784C771.557 561.784 800.407 533.049 800.407 497.602C800.407 462.154 771.557 433.419 735.97 433.419C700.383 433.419 671.533 462.154 671.533 497.602C671.533 533.049 700.383 561.784 735.97 561.784Z" fill="#FFF276"/>
<path d="M737.619 771.598C709.325 782.826 677.711 782.399 649.732 770.41C621.754 758.42 599.703 735.852 588.43 707.668C577.158 679.485 577.587 647.996 589.624 620.127C601.66 592.259 624.318 570.295 652.613 559.067C740.68 525.056 814.379 547.693 837.771 606.458C861.164 665.222 816.758 740.21 737.619 771.598Z" fill="#FFF8ED"/>
<path d="M684.158 758.708C733.514 758.708 773.525 718.855 773.525 669.693C773.525 620.531 733.514 580.677 684.158 580.677C634.801 580.677 594.79 620.531 594.79 669.693C594.79 718.855 634.801 758.708 684.158 758.708Z" fill="#FFBC00"/>
<path d="M695.116 546.572C725.338 550.892 754.271 561.648 779.944 578.107C805.617 594.567 827.429 616.343 843.893 641.953L843.322 654.591C843.322 654.591 798.583 581.925 675.482 551.469L695.116 546.572Z" fill="white"/>
<path d="M597.391 837.487C597.391 837.487 470.865 718.252 500.95 599.144C531.035 480.035 572.079 597.643 546.054 615.367C520.029 633.091 529.798 681.098 544.468 710.149C559.138 739.199 586.448 776.353 606.542 778.47C626.636 780.587 671.867 867.643 597.391 837.487Z" fill="#351207"/>
<path d="M641.623 814.992C641.623 814.992 517.634 739.294 521.615 636.835C525.596 534.377 579.454 623.408 561.263 642.348C543.073 661.289 559.36 698.838 576.346 720.069C593.331 741.3 622.084 766.938 638.863 765.216C655.642 763.495 707.677 826.856 641.623 814.992Z" fill="#4A190A"/>
<path d="M562.278 833.538C562.278 833.538 466.075 754.553 503.424 688.301C540.773 622.049 564.213 693.183 540.297 701.302C516.381 709.422 519.981 737.888 529.608 755.833C539.235 773.778 558.916 797.41 575.838 800.254C592.76 803.097 622.813 856.949 562.278 833.538Z" fill="#6B240E"/>
<path d="M643.034 828.515C643.034 828.515 539.52 725.472 567.559 626.141C595.599 526.81 627.318 626.504 605.051 640.784C582.784 655.065 589.874 695.615 601.499 720.369C613.123 745.123 635.216 776.922 652.058 779.165C668.901 781.408 704.87 855.543 643.034 828.515Z" fill="#6B240E"/>
<path d="M340.977 495.027C340.977 495.027 352.078 476.165 322.389 482.073C292.701 487.981 303.866 499.56 303.866 499.56C303.866 499.56 310.844 472.327 292.653 487.981C281.284 499.536 274.942 515.086 275.002 531.265C275.002 531.265 265.914 498.249 241.982 524.235C238.642 526.991 235.939 530.432 234.056 534.324C232.174 538.217 231.158 542.468 231.076 546.787C230.995 551.106 231.851 555.392 233.585 559.352C235.32 563.311 237.892 566.852 241.126 569.73C241.126 569.73 234.005 587.423 226.282 587.896C218.558 588.37 226.202 608.812 226.202 608.812L222.84 627.136C222.84 627.136 226.186 649.173 243.061 651.811C259.935 654.449 213.309 657.703 214.942 669.424C216.576 681.145 242.411 685.916 242.411 685.916C242.411 685.916 218.209 692.851 241.649 710.496C249.416 715.706 258.174 719.273 267.381 720.977C276.588 722.68 286.047 722.484 295.175 720.401L283.201 733.401C283.201 733.401 302.597 752.216 309.163 747.713C315.728 743.211 319.693 762.973 330.414 766.875C341.135 770.777 354.203 752.247 354.203 752.247C354.203 752.247 378.452 775.753 393.566 776.638C408.68 777.522 411.519 755.77 411.519 755.77C411.519 755.77 419.829 758.676 433.294 747.871C446.759 737.066 463.538 755.77 468.089 723.149C472.641 690.529 450.755 705.457 450.755 705.457C450.755 705.457 480.761 711.46 479.397 696.721C478.033 681.983 451.802 672.631 451.802 672.631C451.802 672.631 486.28 674.527 475.781 649.741C473.671 643.133 469.781 637.227 464.535 632.668C459.289 628.109 452.888 625.07 446.029 623.882C446.029 623.882 448.598 613.772 450.216 605.542C451.834 597.311 427.807 588.386 427.807 588.386C427.807 588.386 433.468 596.743 422.843 575.291C414.916 561.62 401.968 551.55 386.731 547.204C386.731 547.204 401.226 530.87 392.218 517.806C383.21 504.742 354.965 512.798 354.965 512.798C354.965 512.798 389.459 481.157 340.977 495.027Z" fill="#009C08"/>
<path d="M312.541 509.323C312.873 510.569 312.955 511.867 312.783 513.145C312.61 514.422 312.186 515.653 311.535 516.767C310.884 517.881 310.018 518.856 308.988 519.636C307.957 520.416 306.783 520.986 305.531 521.313C304.279 521.641 302.975 521.721 301.692 521.547C300.409 521.373 299.174 520.949 298.056 520.299C296.938 519.649 295.959 518.786 295.177 517.759C294.394 516.732 293.822 515.562 293.494 514.315L285.976 485.88C285.646 484.634 285.567 483.336 285.741 482.06C285.916 480.783 286.342 479.554 286.995 478.441C287.647 477.329 288.514 476.356 289.545 475.578C290.576 474.799 291.75 474.231 293.002 473.906C294.253 473.577 295.556 473.497 296.838 473.67C298.12 473.843 299.355 474.265 300.473 474.914C301.59 475.562 302.569 476.424 303.353 477.449C304.136 478.474 304.709 479.643 305.039 480.888L312.541 509.323Z" fill="#00C40A"/>
<path d="M336.108 515.736C334.633 518.201 329.653 517.948 325.006 515.168C320.343 512.387 317.743 508.138 319.217 505.69L327.242 492.294C328.717 489.829 333.713 490.082 338.344 492.862C343.102 495.643 345.607 499.892 344.133 502.341L336.108 515.736Z" fill="#00C40A"/>
<path d="M307.355 512.767C309.248 513.991 310.599 515.891 311.13 518.077C311.661 520.263 311.331 522.568 310.209 524.519C308.148 529.543 303.548 532.418 299.917 530.933L280.203 522.877C278.304 521.657 276.948 519.757 276.416 517.569C275.885 515.381 276.219 513.073 277.349 511.124C279.395 506.1 284.01 503.225 287.641 504.71L307.355 512.767Z" fill="#1CFF28"/>
<path d="M240.016 615.825C242.338 617.019 244.09 619.082 244.887 621.561C245.684 624.04 245.46 626.732 244.266 629.047C243.676 630.194 242.864 631.213 241.878 632.046C240.892 632.879 239.75 633.511 238.519 633.904C237.287 634.297 235.99 634.445 234.701 634.338C233.412 634.231 232.157 633.872 231.008 633.281L204.729 619.838C202.405 618.65 200.65 616.591 199.85 614.115C199.05 611.638 199.27 608.946 200.463 606.632C201.655 604.317 203.722 602.569 206.208 601.772C208.695 600.975 211.397 601.195 213.721 602.382L240.016 615.825Z" fill="#00C40A"/>
<path d="M260.538 602.651C261.394 605.399 257.873 608.97 252.608 610.549C247.422 612.129 242.522 611.244 241.665 608.496L237.018 593.615C236.162 590.866 239.683 587.296 244.948 585.716C250.15 584.137 255.05 585.037 255.907 587.77L260.538 602.651Z" fill="#00C40A"/>
<path d="M239.112 621.986C242.648 620.28 247.422 622.855 249.801 627.72C251.054 629.594 251.535 631.875 251.146 634.093C250.756 636.31 249.525 638.293 247.708 639.631L228.549 648.888C225.029 650.594 220.239 648.035 217.876 643.154C216.625 641.281 216.144 639.002 216.53 636.786C216.917 634.57 218.142 632.586 219.954 631.243L239.112 621.986Z" fill="#1CFF28"/>
<path d="M304.912 658.903C305.242 660.15 305.322 661.45 305.148 662.727C304.973 664.005 304.547 665.235 303.895 666.349C303.242 667.463 302.376 668.437 301.345 669.217C300.314 669.997 299.139 670.566 297.887 670.893C295.359 671.553 292.672 671.186 290.415 669.874C288.158 668.562 286.516 666.412 285.849 663.895L278.348 635.461C278.018 634.216 277.937 632.919 278.111 631.643C278.285 630.367 278.709 629.138 279.36 628.026C280.012 626.914 280.876 625.941 281.905 625.162C282.934 624.383 284.108 623.814 285.358 623.487C287.883 622.827 290.569 623.191 292.825 624.5C295.081 625.809 296.725 627.955 297.395 630.469L304.912 658.903Z" fill="#00C40A"/>
<path d="M328.463 665.317C326.989 667.781 322.009 667.529 317.362 664.748C312.699 661.968 310.114 657.719 311.589 655.27L319.614 641.89C321.089 639.426 326.069 639.679 330.716 642.443C335.394 645.223 337.979 649.473 336.504 651.921L328.463 665.317Z" fill="#00C40A"/>
<path d="M299.742 662.363C301.642 663.582 302.998 665.483 303.529 667.671C304.061 669.859 303.727 672.166 302.597 674.116C300.535 679.123 295.936 682.014 292.304 680.529L272.591 672.505C270.694 671.283 269.341 669.382 268.81 667.195C268.279 665.009 268.61 662.702 269.736 660.752C271.798 655.744 276.397 652.853 280.029 654.338L299.742 662.363Z" fill="#1CFF28"/>
<path d="M292.812 560.141C293.474 562.657 293.108 565.332 291.794 567.579C290.48 569.827 288.325 571.464 285.802 572.131C284.55 572.46 283.246 572.54 281.963 572.366C280.68 572.192 279.445 571.768 278.327 571.118C277.209 570.468 276.23 569.605 275.448 568.578C274.665 567.551 274.093 566.38 273.765 565.133L266.247 536.699C265.585 534.181 265.953 531.504 267.27 529.256C268.587 527.009 270.746 525.373 273.273 524.709C274.524 524.38 275.827 524.301 277.109 524.475C278.39 524.649 279.625 525.073 280.741 525.723C281.858 526.374 282.835 527.237 283.616 528.263C284.398 529.29 284.968 530.46 285.294 531.707L292.812 560.141Z" fill="#00C40A"/>
<path d="M316.379 566.555C314.904 569.019 309.908 568.766 305.277 565.986C300.599 563.206 298.013 558.957 299.488 556.508L307.513 543.112C308.988 540.648 313.968 540.901 318.615 543.681C323.373 546.461 325.878 550.711 324.403 553.159L316.379 566.555Z" fill="#00C40A"/>
<path d="M287.626 563.585C289.519 564.81 290.87 566.71 291.401 568.896C291.932 571.081 291.602 573.387 290.48 575.338C288.419 580.361 283.804 583.236 280.188 581.752L260.459 573.743C258.565 572.518 257.214 570.617 256.686 568.43C256.158 566.243 256.492 563.938 257.62 561.99C259.666 556.966 264.281 554.091 267.912 555.576L287.626 563.585Z" fill="#1CFF28"/>
<path d="M418.561 574.611C416.933 576.647 414.562 577.957 411.966 578.253C409.37 578.549 406.763 577.808 404.715 576.191C403.702 575.391 402.857 574.4 402.229 573.274C401.601 572.149 401.201 570.911 401.054 569.631C400.907 568.352 401.014 567.056 401.37 565.818C401.726 564.58 402.324 563.424 403.129 562.416L421.399 539.289C423.024 537.255 425.393 535.945 427.986 535.649C430.579 535.353 433.184 536.094 435.229 537.71C437.272 539.328 438.586 541.688 438.884 544.27C439.181 546.853 438.437 549.448 436.815 551.485L418.561 574.611Z" fill="#00C40A"/>
<path d="M427.616 597.122C424.746 597.438 421.955 593.331 421.368 587.944C420.765 582.557 422.621 577.929 425.475 577.629L441.049 575.938C443.904 575.622 446.711 579.73 447.298 585.116C447.885 590.503 446.045 595.131 443.19 595.432L427.616 597.122Z" fill="#00C40A"/>
<path d="M412.661 572.558C413.676 576.333 410.219 580.456 404.969 581.909C402.882 582.773 400.542 582.805 398.432 581.999C396.322 581.194 394.603 579.612 393.63 577.581L388.158 557.045C387.159 553.285 390.601 549.147 395.866 547.709C397.951 546.845 400.289 546.81 402.399 547.613C404.509 548.415 406.229 549.993 407.205 552.022L412.661 572.558Z" fill="#1CFF28"/>
<path d="M384.257 660.767C383.554 661.85 382.644 662.783 381.579 663.515C380.514 664.247 379.315 664.762 378.05 665.032C376.785 665.302 375.479 665.321 374.206 665.088C372.933 664.855 371.72 664.375 370.634 663.674C369.548 662.973 368.613 662.066 367.879 661.004C367.146 659.943 366.63 658.748 366.361 657.488C366.091 656.228 366.074 654.927 366.309 653.66C366.544 652.394 367.027 651.185 367.731 650.105L383.797 625.398C384.501 624.317 385.412 623.385 386.477 622.655C387.543 621.925 388.742 621.411 390.007 621.142C391.272 620.874 392.578 620.856 393.85 621.09C395.122 621.325 396.335 621.806 397.42 622.507C398.506 623.206 399.443 624.111 400.177 625.17C400.912 626.229 401.429 627.423 401.7 628.682C401.971 629.94 401.991 631.24 401.757 632.506C401.523 633.773 401.041 634.981 400.338 636.061L384.257 660.767Z" fill="#00C40A"/>
<path d="M395.374 682.425C392.551 682.994 389.379 679.155 388.301 673.847C387.207 668.54 388.618 663.769 391.473 663.184L406.825 660.025C409.648 659.456 412.82 663.295 413.898 668.603C414.992 673.91 413.581 678.681 410.726 679.25L395.374 682.425Z" fill="#00C40A"/>
<path d="M378.199 659.267C379.562 662.932 376.517 667.418 371.411 669.298C369.41 670.345 367.082 670.589 364.906 669.981C362.729 669.373 360.869 667.959 359.706 666.028L352.379 646.124C351.031 642.459 354.076 637.973 359.183 636.109C361.179 635.057 363.504 634.809 365.679 635.414C367.853 636.02 369.712 637.433 370.871 639.363L378.199 659.267Z" fill="#1CFF28"/>
<path d="M408.204 738.52C408.535 739.765 408.615 741.064 408.442 742.34C408.268 743.617 407.844 744.847 407.193 745.961C406.542 747.074 405.677 748.049 404.648 748.829C403.619 749.61 402.445 750.181 401.195 750.509C399.943 750.838 398.638 750.918 397.356 750.744C396.073 750.57 394.837 750.146 393.719 749.496C392.601 748.846 391.623 747.983 390.84 746.956C390.057 745.929 389.486 744.759 389.157 743.511L381.64 715.077C380.978 712.561 381.347 709.887 382.664 707.641C383.982 705.396 386.14 703.764 388.666 703.103C391.191 702.443 393.877 702.807 396.133 704.116C398.389 705.425 400.033 707.572 400.703 710.085L408.204 738.52Z" fill="#00C40A"/>
<path d="M431.771 744.933C430.297 747.398 425.317 747.145 420.67 744.365C415.991 741.584 413.406 737.335 414.881 734.886L422.906 721.506C424.381 719.042 429.377 719.295 434.008 722.059C438.765 724.84 441.271 729.089 439.796 731.537L431.771 744.933Z" fill="#00C40A"/>
<path d="M403.018 741.979C404.915 743.201 406.268 745.102 406.8 747.288C407.331 749.475 406.999 751.782 405.873 753.732C403.811 758.74 399.212 761.631 395.58 760.146L375.867 752.121C373.968 750.901 372.612 749.001 372.08 746.813C371.549 744.625 371.883 742.317 373.012 740.368C375.058 735.36 379.673 732.47 383.305 733.955L403.018 741.979Z" fill="#1CFF28"/>
<path d="M329.431 727.967C328.667 729.007 327.704 729.887 326.598 730.555C325.492 731.224 324.265 731.668 322.986 731.864C321.707 732.059 320.402 732.001 319.146 731.693C317.89 731.385 316.707 730.833 315.665 730.068C314.621 729.307 313.738 728.348 313.067 727.247C312.396 726.145 311.949 724.922 311.753 723.649C311.557 722.375 311.616 721.075 311.925 719.824C312.234 718.572 312.788 717.394 313.556 716.357L331.001 692.661C332.547 690.565 334.866 689.166 337.447 688.772C340.029 688.378 342.662 689.021 344.767 690.56C346.872 692.1 348.277 694.41 348.672 696.981C349.068 699.553 348.422 702.175 346.876 704.272L329.431 727.967Z" fill="#00C40A"/>
<path d="M339.264 750.241C336.409 750.652 333.459 746.623 332.698 741.268C331.921 735.897 333.602 731.222 336.457 730.811L351.951 728.599C354.806 728.189 357.756 732.201 358.517 737.572C359.294 742.927 357.613 747.619 354.758 748.014L339.264 750.241Z" fill="#00C40A"/>
<path d="M323.531 726.119C324.673 729.847 321.374 734.16 316.157 735.724C314.101 736.658 311.764 736.771 309.628 736.039C307.491 735.307 305.718 733.786 304.674 731.79L298.521 711.491C297.395 707.747 300.694 703.451 305.896 701.887C307.95 700.948 310.289 700.833 312.427 701.566C314.564 702.298 316.337 703.821 317.378 705.82L323.531 726.119Z" fill="#1CFF28"/>
<path d="M247.01 701.207C248.3 701.113 249.596 701.272 250.825 701.677C252.053 702.081 253.19 702.723 254.169 703.565C255.148 704.407 255.952 705.433 256.533 706.584C257.114 707.735 257.462 708.99 257.556 710.275C257.651 711.56 257.491 712.851 257.085 714.075C256.679 715.299 256.035 716.43 255.19 717.406C254.344 718.382 253.314 719.182 252.158 719.76C251.002 720.339 249.743 720.686 248.453 720.78L218.986 722.928C217.696 723.023 216.4 722.863 215.171 722.459C213.943 722.055 212.806 721.413 211.827 720.571C210.847 719.729 210.044 718.703 209.463 717.551C208.882 716.4 208.534 715.146 208.44 713.861C208.345 712.576 208.505 711.286 208.911 710.063C209.317 708.841 209.962 707.71 210.807 706.736C211.653 705.761 212.683 704.963 213.839 704.385C214.995 703.808 216.253 703.464 217.543 703.372L247.01 701.207Z" fill="#00C40A"/>
<path d="M257.651 679.266C259.808 681.161 258.651 685.995 255.05 690.055C251.45 694.13 246.788 695.884 244.631 693.988L232.879 683.689C230.706 681.793 231.88 676.943 235.464 672.884C239.064 668.824 243.727 667.055 245.9 668.95L257.651 679.266Z" fill="#00C40A"/>
<path d="M249.468 706.926C251.02 705.294 253.142 704.317 255.397 704.196C257.651 704.076 259.865 704.821 261.584 706.278C263.632 707.228 265.236 708.924 266.065 711.016C266.894 713.109 266.886 715.439 266.041 717.526L254.527 735.376C252.975 737.008 250.853 737.985 248.598 738.106C246.344 738.226 244.13 737.481 242.411 736.024C240.35 735.082 238.732 733.388 237.891 731.292C237.049 729.195 237.049 726.857 237.891 724.761L249.468 706.926Z" fill="#1CFF28"/>
<path d="M450.137 639.663C448.341 641.551 445.867 642.653 443.256 642.727C440.646 642.801 438.113 641.841 436.212 640.058C434.316 638.269 433.21 635.804 433.136 633.205C433.062 630.605 434.025 628.081 435.816 626.188L456.116 604.799C457.003 603.86 458.067 603.105 459.248 602.577C460.428 602.049 461.702 601.759 462.996 601.722C464.289 601.685 465.577 601.903 466.786 602.364C467.995 602.824 469.101 603.517 470.04 604.404C471.936 606.193 473.042 608.657 473.116 611.257C473.191 613.857 472.227 616.381 470.437 618.274L450.137 639.663Z" fill="#00C40A"/>
<path d="M457.131 662.963C454.244 662.963 451.834 658.682 451.723 653.264C451.627 647.846 453.879 643.407 456.766 643.359L472.419 643.059C475.29 643.059 477.716 647.356 477.811 652.774C477.922 658.193 475.67 662.631 472.784 662.679L457.131 662.963Z" fill="#00C40A"/>
<path d="M444.459 637.088C445.125 640.942 441.287 644.797 435.942 645.713C430.582 646.629 425.697 644.244 425.047 640.405L421.447 619.49C420.797 615.636 424.619 611.781 429.963 610.865C435.324 609.965 440.209 612.334 440.875 616.189L444.459 637.088Z" fill="#1CFF28"/>
<path d="M460.715 704.398C461.045 705.645 461.125 706.944 460.95 708.222C460.776 709.5 460.35 710.73 459.697 711.844C459.045 712.958 458.178 713.932 457.147 714.712C456.116 715.492 454.941 716.061 453.689 716.388C451.161 717.048 448.474 716.681 446.217 715.369C443.961 714.057 442.319 711.907 441.652 709.39L434.15 680.956C433.82 679.711 433.74 678.414 433.914 677.138C434.087 675.862 434.512 674.633 435.163 673.521C435.814 672.409 436.679 671.436 437.708 670.657C438.737 669.878 439.91 669.309 441.16 668.982C443.686 668.322 446.371 668.686 448.628 669.995C450.884 671.304 452.527 673.45 453.197 675.964L460.715 704.398Z" fill="#00C40A"/>
<path d="M484.266 710.859C482.791 713.324 477.811 713.071 473.164 710.291C468.502 707.51 465.901 703.261 467.392 700.813L475.416 687.433C476.891 684.968 481.871 685.221 486.518 687.985C491.276 690.766 493.782 695.015 492.307 697.464L484.266 710.859Z" fill="#00C40A"/>
<path d="M455.513 707.858C457.413 709.077 458.768 710.978 459.3 713.166C459.831 715.354 459.498 717.661 458.368 719.611C456.306 724.618 451.707 727.509 448.075 726.024L428.362 718C426.462 716.78 425.106 714.88 424.575 712.692C424.043 710.504 424.377 708.196 425.507 706.247C427.569 701.239 432.168 698.348 435.8 699.833L455.513 707.858Z" fill="#1CFF28"/>
<path d="M333.459 613.63C332.97 614.821 332.25 615.904 331.341 616.818C330.431 617.732 329.35 618.458 328.158 618.955C326.967 619.453 325.688 619.711 324.397 619.716C323.105 619.721 321.824 619.473 320.629 618.985C319.431 618.497 318.342 617.78 317.422 616.873C316.503 615.966 315.772 614.888 315.271 613.7C314.771 612.511 314.51 611.237 314.504 609.948C314.498 608.659 314.747 607.382 315.237 606.189L326.418 578.955C327.409 576.549 329.318 574.632 331.726 573.625C334.134 572.618 336.845 572.604 339.264 573.585C340.462 574.072 341.551 574.789 342.471 575.696C343.39 576.603 344.121 577.681 344.621 578.869C345.122 580.058 345.383 581.333 345.389 582.621C345.395 583.91 345.146 585.187 344.656 586.38L333.459 613.63Z" fill="#00C40A"/>
<path d="M348.415 632.854C345.75 633.944 341.928 630.753 339.866 625.746C337.805 620.722 338.28 615.778 340.977 614.688L355.472 608.796C358.136 607.722 361.974 610.913 364.02 615.92C366.082 620.944 365.606 625.888 362.91 626.978L348.415 632.854Z" fill="#00C40A"/>
<path d="M327.242 613.266C328.003 615.367 327.935 617.677 327.052 619.729C326.169 621.782 324.536 623.424 322.485 624.324C320.714 625.722 318.473 626.392 316.223 626.195C313.972 625.998 311.882 624.95 310.384 623.266L299.473 605.052C297.458 601.703 299.631 596.743 304.23 593.994C305.999 592.594 308.238 591.921 310.489 592.115C312.74 592.309 314.83 593.355 316.331 595.037L327.242 613.266Z" fill="#1CFF28"/>
<path d="M357.914 547.488C356.952 548.349 355.829 549.013 354.609 549.441C353.39 549.87 352.097 550.055 350.806 549.986C349.514 549.917 348.249 549.596 347.082 549.04C345.915 548.484 344.87 547.704 344.006 546.746C343.141 545.787 342.475 544.669 342.045 543.454C341.614 542.239 341.428 540.951 341.498 539.665C341.567 538.378 341.89 537.118 342.448 535.956C343.006 534.794 343.789 533.753 344.751 532.892L366.732 513.209C367.694 512.348 368.817 511.684 370.037 511.256C371.257 510.827 372.549 510.642 373.841 510.711C375.132 510.78 376.398 511.101 377.564 511.657C378.731 512.213 379.777 512.993 380.641 513.951C381.505 514.91 382.172 516.028 382.602 517.243C383.032 518.458 383.218 519.746 383.149 521.032C383.08 522.318 382.757 523.579 382.198 524.741C381.64 525.903 380.858 526.944 379.895 527.805L357.914 547.488Z" fill="#00C40A"/>
<path d="M362.973 571.278C360.103 571.104 358.041 566.539 358.39 561.168C358.739 555.75 361.34 551.516 364.211 551.69L379.848 552.669C382.718 552.843 384.78 557.409 384.431 562.779C384.082 568.198 381.481 572.431 378.595 572.258L362.973 571.278Z" fill="#00C40A"/>
<path d="M352.475 544.455C352.808 548.341 348.7 551.88 343.276 552.354C337.852 552.827 333.19 550.063 332.841 546.177L330.985 525.041C330.636 521.155 334.76 517.616 340.168 517.142C345.592 516.668 350.27 519.433 350.603 523.335L352.475 544.455Z" fill="#1CFF28"/>
<path d="M417.879 846.949C417.879 846.949 407.364 863.868 434.515 859.097C461.666 854.327 451.723 843.569 451.723 843.569C451.723 843.569 444.824 868.18 461.682 854.327C472.255 844.048 478.34 830.037 478.62 815.324C478.62 815.324 486.201 845.528 508.499 822.369C511.595 819.934 514.126 816.86 515.918 813.36C517.71 809.859 518.721 806.014 518.882 802.088C519.043 798.161 518.351 794.247 516.851 790.612C515.352 786.977 513.082 783.708 510.196 781.029C510.196 781.029 517.016 765.074 524.057 764.806C531.099 764.537 524.549 745.849 524.549 745.849L528.038 729.2C528.038 729.2 525.453 709.106 510.164 706.373C494.876 703.64 537.316 701.634 536.079 690.924C534.842 680.213 511.433 675.364 511.433 675.364C511.433 675.364 533.636 669.551 512.623 653.027C505.663 648.139 497.773 644.723 489.437 642.99C481.101 641.257 472.498 641.243 464.156 642.949L475.258 631.369C475.258 631.369 458.003 613.882 451.945 617.832C445.886 621.781 442.683 603.741 433.008 599.997C423.334 596.253 411.138 612.824 411.138 612.824C411.138 612.824 389.554 590.961 375.835 589.839C362.117 588.718 359.088 608.464 359.088 608.464C359.088 608.464 351.602 605.636 339.121 615.209C326.64 624.782 311.779 607.311 306.99 636.977C302.2 666.644 322.389 653.422 322.389 653.422C322.389 653.422 295.238 647.356 296.174 660.783C297.109 674.211 320.772 683.246 320.772 683.246C320.772 683.246 289.418 680.877 298.569 703.609C300.358 709.656 303.78 715.098 308.461 719.34C313.143 723.583 318.904 726.463 325.117 727.667C325.117 727.667 322.58 736.829 320.93 744.27C319.281 751.71 340.977 760.319 340.977 760.319C340.977 760.319 336.013 752.61 345.227 772.325C352.142 784.91 363.698 794.324 377.453 798.579C377.453 798.579 363.925 813.144 371.871 825.213C379.816 837.282 405.635 830.505 405.635 830.505C405.635 830.505 373.583 858.576 417.879 846.949Z" fill="#009C08"/>
<path d="M444.063 834.517C443.514 832.215 443.903 829.791 445.146 827.774C446.388 825.758 448.383 824.314 450.692 823.76C453.003 823.213 455.437 823.601 457.461 824.839C459.486 826.076 460.935 828.063 461.492 830.363L467.741 856.396C468.294 858.696 467.909 861.121 466.669 863.138C465.429 865.155 463.436 866.599 461.127 867.154C458.816 867.7 456.382 867.312 454.357 866.075C452.333 864.837 450.884 862.851 450.327 860.551L444.063 834.517Z" fill="#00C40A"/>
<path d="M422.795 828.214C424.191 826.003 428.711 826.335 432.897 828.957C437.1 831.579 439.368 835.497 437.972 837.708L430.408 849.714C429.012 851.925 424.492 851.594 420.289 848.987C416.102 846.365 413.834 842.447 415.23 840.236L422.795 828.214Z" fill="#00C40A"/>
<path d="M448.82 831.484C447.102 830.351 445.895 828.595 445.454 826.59C445.013 824.585 445.373 822.488 446.457 820.742C448.424 816.225 452.674 813.697 455.973 815.119L473.735 822.796C475.438 823.943 476.632 825.697 477.072 827.697C477.512 829.696 477.163 831.787 476.098 833.538C474.132 838.072 469.882 840.583 466.583 839.162L448.82 831.484Z" fill="#1CFF28"/>
<path d="M512.258 739.136C510.17 738.007 508.617 736.097 507.942 733.828C507.267 731.559 507.525 729.116 508.658 727.035C509.218 726.006 509.976 725.097 510.888 724.359C511.801 723.622 512.851 723.071 513.978 722.738C515.105 722.405 516.286 722.296 517.455 722.419C518.624 722.541 519.757 722.891 520.79 723.45L544.421 736.198C546.509 737.327 548.061 739.236 548.736 741.505C549.411 743.774 549.154 746.218 548.021 748.298C547.461 749.327 546.703 750.237 545.79 750.974C544.877 751.711 543.827 752.262 542.701 752.595C541.574 752.928 540.392 753.037 539.223 752.915C538.054 752.793 536.921 752.442 535.888 751.884L512.258 739.136Z" fill="#00C40A"/>
<path d="M493.227 750.715C492.513 748.203 495.78 745.06 500.538 743.701C505.296 742.343 509.736 743.29 510.45 745.802L514.383 759.435C515.097 761.946 511.83 765.074 507.072 766.433C502.314 767.791 497.873 766.859 497.16 764.348L493.227 750.715Z" fill="#00C40A"/>
<path d="M513.13 733.559C509.958 735.044 505.597 732.612 503.614 728.125C502.513 726.397 502.121 724.313 502.52 722.304C502.918 720.296 504.077 718.517 505.755 717.336L523.359 709.311C526.531 707.826 530.893 710.259 532.954 714.745C534.055 716.474 534.447 718.558 534.049 720.566C533.65 722.575 532.492 724.353 530.813 725.535L513.13 733.559Z" fill="#1CFF28"/>
<path d="M454.07 698.664C453.516 696.364 453.902 693.939 455.142 691.922C456.382 689.905 458.375 688.461 460.683 687.907C462.994 687.36 465.428 687.748 467.453 688.986C469.477 690.223 470.926 692.21 471.483 694.51L477.748 720.543C478.297 722.845 477.907 725.27 476.664 727.286C475.422 729.302 473.428 730.746 471.119 731.3C468.808 731.847 466.373 731.459 464.349 730.221C462.324 728.984 460.875 726.997 460.318 724.697L454.07 698.664Z" fill="#00C40A"/>
<path d="M432.771 692.361C434.166 690.15 438.686 690.481 442.873 693.104C447.076 695.726 449.344 699.644 447.948 701.855L440.383 713.861C438.987 716.072 434.468 715.741 430.265 713.134C426.078 710.512 423.81 706.594 425.206 704.383L432.771 692.361Z" fill="#00C40A"/>
<path d="M458.859 695.631C457.141 694.498 455.934 692.742 455.493 690.737C455.052 688.732 455.412 686.635 456.496 684.889C458.463 680.371 462.713 677.86 466.012 679.266L483.79 686.943C485.488 688.097 486.677 689.856 487.114 691.856C487.55 693.857 487.201 695.948 486.137 697.701C484.171 702.219 479.921 704.73 476.622 703.324L458.859 695.631Z" fill="#1CFF28"/>
<path d="M463.094 788.706C462.54 786.406 462.926 783.982 464.166 781.965C465.406 779.947 467.399 778.503 469.707 777.949C470.852 777.676 472.039 777.63 473.201 777.814C474.363 777.999 475.477 778.409 476.48 779.022C477.483 779.635 478.355 780.439 479.046 781.388C479.737 782.337 480.233 783.412 480.507 784.552L486.772 810.585C487.321 812.887 486.931 815.312 485.688 817.328C484.446 819.344 482.452 820.788 480.143 821.343C477.832 821.889 475.397 821.501 473.373 820.264C471.349 819.026 469.899 817.04 469.342 814.74L463.094 788.706Z" fill="#00C40A"/>
<path d="M441.763 782.419C443.158 780.208 447.678 780.524 451.881 783.146C456.068 785.768 458.336 789.686 456.94 791.897L449.375 803.903C447.98 806.114 443.46 805.783 439.273 803.176C435.07 800.554 432.802 796.636 434.198 794.425L441.763 782.419Z" fill="#00C40A"/>
<path d="M467.852 785.673C466.152 784.524 464.96 782.77 464.521 780.772C464.081 778.773 464.428 776.683 465.488 774.932C467.471 770.414 471.705 767.902 475.004 769.308L492.767 777.001C494.463 778.153 495.652 779.908 496.089 781.906C496.525 783.904 496.176 785.993 495.114 787.743C493.147 792.261 488.897 794.772 485.598 793.366L467.852 785.673Z" fill="#1CFF28"/>
<path d="M349.017 773.036C349.767 772.122 350.692 771.365 351.737 770.809C352.782 770.253 353.927 769.908 355.107 769.795C356.286 769.682 357.476 769.803 358.609 770.15C359.741 770.498 360.794 771.065 361.705 771.82C362.623 772.566 363.383 773.487 363.941 774.529C364.499 775.571 364.844 776.712 364.956 777.888C365.069 779.063 364.945 780.249 364.594 781.377C364.243 782.504 363.67 783.551 362.91 784.457L345.734 805.04C344.224 806.866 342.047 808.02 339.683 808.248C337.319 808.476 334.96 807.76 333.126 806.257C332.207 805.511 331.446 804.591 330.886 803.55C330.326 802.509 329.98 801.367 329.866 800.192C329.753 799.017 329.874 797.83 330.224 796.702C330.574 795.574 331.145 794.526 331.905 793.619L349.017 773.036Z" fill="#00C40A"/>
<path d="M341.246 752.31C343.847 752.089 346.321 755.88 346.749 760.793C347.178 765.706 345.401 769.861 342.785 770.098L328.606 771.314C325.989 771.535 323.531 767.744 323.103 762.831C322.675 757.934 324.451 753.764 327.052 753.543L341.246 752.31Z" fill="#00C40A"/>
<path d="M354.346 775.011C353.505 771.567 356.725 767.823 361.53 766.67C363.445 765.93 365.572 765.948 367.475 766.72C369.377 767.493 370.91 768.961 371.76 770.824L376.295 789.575C377.136 793.019 373.916 796.763 369.111 797.916C367.197 798.664 365.067 798.65 363.162 797.877C361.258 797.103 359.725 795.63 358.882 793.761L354.346 775.011Z" fill="#1CFF28"/>
<path d="M381.941 695.378C383.279 693.423 385.341 692.075 387.674 691.631C390.008 691.187 392.423 691.682 394.391 693.009C396.354 694.341 397.707 696.395 398.153 698.719C398.599 701.044 398.102 703.45 396.77 705.409L381.672 727.525C380.334 729.481 378.272 730.828 375.938 731.272C373.605 731.717 371.19 731.221 369.222 729.895C367.259 728.562 365.906 726.508 365.46 724.184C365.014 721.859 365.511 719.454 366.843 717.494L381.941 695.378Z" fill="#00C40A"/>
<path d="M372.283 675.459C374.852 675 377.659 678.618 378.547 683.357C379.42 688.207 378.04 692.503 375.471 692.977L361.451 695.489C358.882 695.963 356.075 692.33 355.187 687.591C354.314 682.741 355.694 678.428 358.263 677.97L372.283 675.459Z" fill="#00C40A"/>
<path d="M387.429 696.863C386.271 693.499 389.126 689.486 393.772 687.891C395.607 686.972 397.725 686.788 399.692 687.375C401.659 687.963 403.326 689.278 404.351 691.05L410.615 709.311C411.757 712.66 408.902 716.688 404.271 718.284C402.439 719.202 400.323 719.385 398.359 718.798C396.395 718.21 394.731 716.896 393.709 715.125L387.429 696.863Z" fill="#1CFF28"/>
<path d="M361.752 624.198C361.478 623.058 361.433 621.875 361.618 620.718C361.802 619.56 362.214 618.45 362.83 617.451C363.446 616.452 364.253 615.584 365.205 614.896C366.158 614.207 367.237 613.713 368.382 613.44C370.691 612.894 373.123 613.282 375.145 614.52C377.167 615.758 378.613 617.744 379.166 620.043L385.383 646.092C385.932 648.394 385.542 650.819 384.3 652.835C383.057 654.852 381.063 656.295 378.754 656.85C376.443 657.397 374.008 657.008 371.984 655.771C369.96 654.533 368.51 652.547 367.953 650.247L361.752 624.198Z" fill="#00C40A"/>
<path d="M340.453 617.911C341.849 615.699 346.369 616.015 350.571 618.637C354.758 621.26 357.026 625.177 355.631 627.389L348.066 639.394C346.67 641.606 342.15 641.29 337.963 638.668C333.761 636.045 331.493 632.128 332.888 629.916L340.453 617.911Z" fill="#00C40A"/>
<path d="M366.542 621.165C364.843 620.015 363.651 618.261 363.211 616.263C362.772 614.265 363.118 612.174 364.179 610.423C366.161 605.905 370.396 603.393 373.694 604.799L391.457 612.492C393.153 613.644 394.342 615.399 394.779 617.397C395.215 619.396 394.867 621.484 393.804 623.234C391.838 627.752 387.587 630.264 384.289 628.858L366.542 621.165Z" fill="#1CFF28"/>
<path d="M433.167 635.382C434.624 633.515 436.764 632.3 439.119 632.004C441.474 631.708 443.851 632.355 445.728 633.802C447.602 635.253 448.821 637.385 449.119 639.731C449.416 642.077 448.767 644.444 447.314 646.313L430.947 667.544C429.49 669.411 427.349 670.626 424.994 670.922C422.64 671.218 420.263 670.571 418.386 669.124C416.512 667.673 415.293 665.541 414.995 663.195C414.698 660.85 415.347 658.482 416.8 656.613L433.167 635.382Z" fill="#00C40A"/>
<path d="M424.682 614.941C427.283 614.625 429.868 618.337 430.471 623.234C431.058 628.115 429.424 632.333 426.823 632.712L412.693 634.418C410.092 634.734 407.507 631.022 406.904 626.125C406.317 621.244 407.935 617.026 410.536 616.647L424.682 614.941Z" fill="#00C40A"/>
<path d="M438.543 637.183C437.592 633.771 440.684 629.916 445.442 628.605C447.327 627.775 449.462 627.708 451.395 628.419C453.328 629.13 454.907 630.562 455.798 632.412L460.984 650.989C461.936 654.417 458.859 658.256 454.086 659.583C452.198 660.388 450.072 660.443 448.146 659.735C446.219 659.026 444.639 657.61 443.729 655.776L438.543 637.183Z" fill="#1CFF28"/>
<path d="M507.5 661.368C505.128 661.488 502.805 660.666 501.042 659.081C499.278 657.496 498.218 655.279 498.095 652.916C498.033 651.746 498.204 650.575 498.597 649.47C498.99 648.366 499.598 647.349 500.386 646.479C501.175 645.609 502.127 644.902 503.19 644.399C504.253 643.896 505.405 643.607 506.58 643.549L533.414 642.175C534.59 642.115 535.766 642.287 536.875 642.68C537.984 643.073 539.005 643.681 539.878 644.467C540.751 645.253 541.461 646.203 541.965 647.263C542.47 648.322 542.76 649.47 542.819 650.642C542.879 651.811 542.707 652.98 542.312 654.083C541.918 655.186 541.31 656.2 540.522 657.069C539.734 657.937 538.782 658.643 537.72 659.144C536.658 659.646 535.508 659.935 534.334 659.993L507.5 661.368Z" fill="#00C40A"/>
<path d="M497.445 681.066C495.526 679.297 496.668 674.921 500.03 671.304C503.377 667.671 507.659 666.17 509.546 667.939L520.029 677.544C521.948 679.313 520.806 683.689 517.444 687.306C514.097 690.939 509.815 692.44 507.928 690.671L497.445 681.066Z" fill="#00C40A"/>
<path d="M505.438 656.123C503.988 657.592 502.025 658.448 499.957 658.513C497.89 658.578 495.877 657.846 494.337 656.471C492.497 655.559 491.078 653.981 490.37 652.059C489.662 650.138 489.72 648.02 490.53 646.14L501.362 630.153C502.805 628.7 504.753 627.854 506.804 627.789C508.855 627.724 510.852 628.446 512.385 629.806C514.23 630.712 515.655 632.289 516.366 634.211C517.078 636.134 517.02 638.255 516.207 640.137L505.438 656.123Z" fill="#1CFF28"/>
<path d="M321.628 713.245C322.454 712.407 323.438 711.739 324.524 711.281C325.61 710.824 326.776 710.584 327.955 710.577C329.135 710.569 330.303 710.794 331.395 711.239C332.487 711.683 333.479 712.338 334.316 713.166C335.152 713.994 335.816 714.978 336.268 716.063C336.721 717.147 336.954 718.31 336.954 719.484C336.954 720.659 336.721 721.822 336.268 722.906C335.816 723.991 335.152 724.975 334.316 725.803L315.443 744.854C313.76 746.529 311.478 747.469 309.099 747.469C306.72 747.469 304.439 746.529 302.755 744.854C301.916 744.03 301.248 743.05 300.789 741.968C300.331 740.887 300.091 739.726 300.084 738.552C300.076 737.378 300.301 736.214 300.746 735.127C301.191 734.04 301.847 733.051 302.676 732.217L321.628 713.245Z" fill="#00C40A"/>
<path d="M315.744 691.903C318.361 691.903 320.502 695.915 320.502 700.844C320.502 705.757 318.345 709.754 315.744 709.738H301.471C298.854 709.738 296.713 705.725 296.713 700.797C296.713 695.868 298.87 691.887 301.471 691.903H315.744Z" fill="#00C40A"/>
<path d="M326.703 715.693C326.18 712.186 329.732 708.758 334.633 708.032C339.533 707.305 343.926 709.611 344.45 713.087L347.289 732.169C347.812 735.676 344.259 739.104 339.359 739.831C334.458 740.558 330.065 738.251 329.542 734.776L326.703 715.693Z" fill="#1CFF28"/>
<path d="M313.318 654.164C312.769 651.864 313.159 649.442 314.402 647.428C315.645 645.414 317.639 643.974 319.947 643.422C321.09 643.147 322.277 643.099 323.439 643.282C324.601 643.464 325.716 643.873 326.719 644.485C327.722 645.096 328.594 645.899 329.286 646.847C329.977 647.796 330.474 648.87 330.747 650.01L336.996 676.043C337.272 677.182 337.32 678.364 337.137 679.521C336.954 680.679 336.544 681.789 335.93 682.788C335.315 683.788 334.509 684.656 333.557 685.345C332.605 686.033 331.527 686.528 330.382 686.801C329.238 687.076 328.05 687.123 326.887 686.94C325.724 686.756 324.609 686.346 323.606 685.733C322.603 685.119 321.731 684.315 321.04 683.365C320.35 682.415 319.854 681.339 319.582 680.198L313.318 654.164Z" fill="#00C40A"/>
<path d="M292.034 647.877C293.43 645.666 297.95 645.997 302.137 648.604C306.34 651.226 308.608 655.144 307.212 657.355L299.647 669.361C298.251 671.573 293.716 671.257 289.529 668.634C285.342 666.012 283.074 662.094 284.47 659.883L292.034 647.877Z" fill="#00C40A"/>
<path d="M318.107 651.147C316.41 649.993 315.22 648.234 314.784 646.234C314.347 644.233 314.697 642.142 315.76 640.39C317.727 635.872 321.977 633.36 325.276 634.766L343.038 642.459C344.756 643.593 345.964 645.348 346.405 647.353C346.846 649.358 346.486 651.455 345.401 653.201C343.435 657.719 339.184 660.23 335.886 658.824L318.107 651.147Z" fill="#1CFF28"/>
<path d="M427.172 739.294C427.643 738.219 428.321 737.247 429.169 736.434C430.016 735.62 431.017 734.981 432.112 734.552C433.208 734.124 434.378 733.915 435.555 733.937C436.732 733.959 437.893 734.212 438.972 734.681C440.05 735.148 441.026 735.822 441.842 736.665C442.659 737.508 443.3 738.503 443.731 739.593C444.161 740.683 444.371 741.847 444.349 743.018C444.327 744.189 444.073 745.345 443.603 746.418L432.961 770.888C432.492 771.962 431.815 772.933 430.969 773.747C430.123 774.56 429.124 775.199 428.029 775.628C426.935 776.056 425.766 776.265 424.591 776.244C423.415 776.222 422.255 775.969 421.177 775.5C418.999 774.557 417.286 772.791 416.415 770.59C415.544 768.389 415.585 765.933 416.531 763.763L427.172 739.294Z" fill="#00C40A"/>
<path d="M413.93 721.475C416.372 720.543 419.798 723.513 421.558 728.125C423.318 732.722 422.763 737.209 420.321 738.141L407.015 743.211C404.573 744.143 401.163 741.158 399.387 736.561C397.626 731.964 398.181 727.478 400.624 726.546L413.93 721.475Z" fill="#00C40A"/>
<path d="M432.834 739.72C431.074 736.561 433.135 732.154 437.449 729.721C439.084 728.48 441.135 727.913 443.177 728.137C445.22 728.36 447.098 729.357 448.424 730.921L457.939 747.698C459.7 750.857 457.638 755.264 453.324 757.681C451.692 758.924 449.642 759.494 447.599 759.273C445.557 759.053 443.677 758.059 442.35 756.497L432.834 739.72Z" fill="#1CFF28"/>
<path d="M403.605 798.911C404.499 798.139 405.537 797.551 406.66 797.181C407.782 796.81 408.968 796.665 410.147 796.753C411.327 796.841 412.477 797.161 413.532 797.694C414.587 798.227 415.525 798.963 416.293 799.859C417.07 800.748 417.662 801.782 418.035 802.9C418.408 804.019 418.555 805.2 418.466 806.376C418.378 807.551 418.056 808.697 417.52 809.748C416.983 810.799 416.243 811.733 415.341 812.496L394.962 829.873C394.07 830.649 393.033 831.241 391.909 831.613C390.786 831.986 389.6 832.133 388.419 832.045C387.238 831.957 386.087 831.635 385.032 831.1C383.977 830.564 383.04 829.825 382.274 828.925C381.497 828.036 380.905 827.002 380.532 825.884C380.159 824.765 380.012 823.584 380.101 822.409C380.189 821.233 380.511 820.087 381.048 819.036C381.584 817.986 382.324 817.051 383.226 816.288L403.605 798.911Z" fill="#00C40A"/>
<path d="M399.482 777.206C402.099 777.427 403.875 781.582 403.462 786.495C403.034 791.408 400.576 795.199 397.959 794.978L383.781 793.777C381.164 793.556 379.388 789.401 379.816 784.489C380.228 779.576 382.687 775.769 385.303 775.99L399.482 777.206Z" fill="#00C40A"/>
<path d="M408.506 801.77C408.268 798.232 412.074 795.088 417.022 794.772C421.955 794.456 426.141 797.063 426.379 800.601L427.648 819.858C427.87 823.396 424.064 826.524 419.132 826.856C414.183 827.172 409.997 824.565 409.759 821.027L408.506 801.77Z" fill="#1CFF28"/>
<path d="M495.827 449.153L481.554 458.631C479.686 459.882 478.18 461.599 477.187 463.611C476.193 465.623 475.746 467.859 475.89 470.097C476.035 472.334 476.765 474.495 478.01 476.364C479.254 478.232 480.968 479.743 482.981 480.746L483.378 480.952C485.4 481.955 487.652 482.411 489.908 482.274C492.163 482.138 494.343 481.413 496.228 480.173C498.114 478.933 499.639 477.222 500.652 475.21C501.664 473.198 502.128 470.956 501.997 468.709L501.013 451.648C500.965 451.071 500.766 450.517 500.436 450.04C500.107 449.563 499.658 449.18 499.135 448.928C498.611 448.676 498.031 448.564 497.451 448.604C496.871 448.643 496.312 448.832 495.827 449.153Z" fill="white"/>
<path d="M486.883 507.569L472.609 517.048C470.746 518.302 469.244 520.02 468.253 522.031C467.262 524.042 466.817 526.277 466.961 528.513C467.105 530.748 467.834 532.908 469.076 534.776C470.317 536.644 472.027 538.157 474.037 539.163L474.449 539.369C476.469 540.372 478.719 540.829 480.973 540.693C483.226 540.558 485.404 539.835 487.289 538.596C489.173 537.358 490.697 535.647 491.709 533.637C492.721 531.627 493.184 529.387 493.052 527.142L492.069 510.065C492.024 509.486 491.828 508.929 491.5 508.449C491.171 507.969 490.722 507.583 490.197 507.331C489.672 507.078 489.089 506.967 488.508 507.009C487.926 507.051 487.366 507.244 486.883 507.569Z" fill="white"/>
<path d="M564.499 491.788L559.947 508.264C559.36 510.429 559.352 512.709 559.924 514.878C560.496 517.047 561.629 519.029 563.209 520.626C564.788 522.224 566.761 523.381 568.929 523.984C571.097 524.587 573.386 524.613 575.568 524.061L576.012 523.951C578.201 523.394 580.203 522.274 581.819 520.703C583.436 519.132 584.609 517.165 585.221 515C585.833 512.834 585.863 510.547 585.307 508.367C584.751 506.186 583.63 504.19 582.055 502.578L570.113 490.303C569.701 489.881 569.183 489.575 568.613 489.418C568.043 489.261 567.441 489.258 566.869 489.409C566.298 489.56 565.777 489.86 565.36 490.278C564.943 490.696 564.646 491.218 564.499 491.788Z" fill="white"/>
<path d="M461.841 459.689L454.212 475.012C453.212 477.027 452.76 479.268 452.902 481.511C453.044 483.754 453.774 485.921 455.02 487.795C456.265 489.669 457.983 491.185 460.001 492.19C462.019 493.196 464.267 493.657 466.519 493.526H466.963C469.218 493.397 471.399 492.679 473.287 491.445C475.175 490.212 476.705 488.505 477.722 486.497C478.739 484.488 479.208 482.249 479.081 480.003C478.955 477.757 478.238 475.584 477.002 473.701L467.63 459.373C467.308 458.883 466.864 458.485 466.339 458.221C465.815 457.956 465.23 457.834 464.644 457.866C464.057 457.898 463.489 458.083 462.997 458.403C462.505 458.723 462.106 459.167 461.841 459.689Z" fill="white"/>
<path d="M515.985 441.949L504.106 429.612C502.546 427.985 500.585 426.796 498.418 426.163C496.251 425.53 493.955 425.475 491.761 426.005C489.566 426.535 487.55 427.63 485.914 429.181C484.279 430.731 483.081 432.683 482.442 434.841L482.315 435.267C481.675 437.424 481.614 439.711 482.139 441.898C482.665 444.086 483.758 446.098 485.309 447.733C486.86 449.367 488.815 450.568 490.978 451.213C493.142 451.859 495.437 451.927 497.635 451.412L514.335 447.494C514.909 447.359 515.436 447.075 515.864 446.672C516.292 446.269 516.605 445.76 516.773 445.197C516.94 444.635 516.955 444.038 516.817 443.468C516.678 442.898 516.391 442.374 515.985 441.949Z" fill="white"/>
<path d="M526.674 540.253L543.612 537.441C545.842 537.079 547.937 536.138 549.688 534.715C551.439 533.291 552.783 531.435 553.586 529.331C554.389 527.227 554.623 524.949 554.264 522.727C553.905 520.505 552.966 518.415 551.541 516.668L551.256 516.321C549.829 514.58 547.968 513.243 545.86 512.443C543.752 511.643 541.47 511.407 539.242 511.761C537.014 512.114 534.918 513.044 533.163 514.457C531.409 515.869 530.057 517.716 529.243 519.812L523.058 535.767C522.85 536.31 522.788 536.899 522.878 537.473C522.969 538.048 523.209 538.589 523.575 539.043C523.94 539.496 524.419 539.847 524.963 540.059C525.506 540.271 526.096 540.338 526.674 540.253Z" fill="white"/>
<path d="M543.977 453.892L551.589 469.215C552.588 471.225 554.099 472.939 555.971 474.186C557.843 475.432 560.011 476.168 562.258 476.32C564.504 476.472 566.752 476.034 568.776 475.051C570.8 474.067 572.529 472.573 573.792 470.715L574.046 470.352C575.307 468.487 576.055 466.324 576.214 464.081C576.373 461.837 575.938 459.592 574.952 457.569C573.966 455.545 572.464 453.815 570.596 452.552C568.728 451.288 566.56 450.536 564.308 450.369L547.148 449.105C546.568 449.077 545.99 449.2 545.472 449.462C544.954 449.724 544.513 450.115 544.193 450.598C543.873 451.081 543.685 451.639 543.647 452.216C543.609 452.794 543.722 453.371 543.977 453.892Z" fill="white"/>
<path d="M520.045 473.906L505.771 483.384C503.904 484.636 502.398 486.353 501.404 488.365C500.41 490.377 499.963 492.613 500.108 494.851C500.252 497.088 500.983 499.249 502.227 501.117C503.471 502.986 505.185 504.497 507.199 505.5L507.595 505.705C509.618 506.708 511.87 507.165 514.125 507.028C516.38 506.891 518.56 506.167 520.446 504.927C522.331 503.687 523.857 501.975 524.869 499.963C525.882 497.951 526.345 495.71 526.214 493.463L525.231 476.402C525.182 475.825 524.983 475.271 524.654 474.794C524.324 474.317 523.876 473.933 523.352 473.681C522.829 473.43 522.249 473.318 521.669 473.357C521.089 473.397 520.529 473.586 520.045 473.906Z" fill="white"/>
<path d="M533.604 422.061L519.331 431.539C517.463 432.791 515.957 434.508 514.964 436.52C513.97 438.531 513.523 440.768 513.667 443.005C513.812 445.243 514.542 447.404 515.787 449.272C517.031 451.141 518.745 452.652 520.758 453.655L521.155 453.844C523.176 454.847 525.426 455.303 527.68 455.167C529.934 455.031 532.113 454.308 533.998 453.07C535.883 451.832 537.409 450.122 538.422 448.112C539.436 446.103 539.902 443.863 539.774 441.617L538.79 424.541C538.735 423.968 538.531 423.418 538.2 422.946C537.869 422.474 537.421 422.095 536.899 421.845C536.378 421.596 535.801 421.485 535.223 421.522C534.646 421.56 534.089 421.746 533.604 422.061Z" fill="white"/>
<path opacity="0.24" d="M681.953 736.545C717.54 736.545 746.39 707.809 746.39 672.362C746.39 636.915 717.54 608.18 681.953 608.18C646.366 608.18 617.516 636.915 617.516 672.362C617.516 707.809 646.366 736.545 681.953 736.545Z" fill="#FFF276"/>
</g>
<defs>
<linearGradient id="paint0_linear_276_613" x1="247.739" y1="331.403" x2="357.853" y2="495.445" gradientUnits="userSpaceOnUse">
<stop offset="0.102" stop-color="#FFD59E"/>
<stop offset="0.301" stop-color="#FFB76C"/>
</linearGradient>
<linearGradient id="paint1_linear_276_613" x1="374.055" y1="375.655" x2="459.759" y2="197.799" gradientUnits="userSpaceOnUse">
<stop offset="0.102" stop-color="#FFD59E"/>
<stop offset="0.301" stop-color="#FFB76C"/>
</linearGradient>
<linearGradient id="paint2_linear_276_613" x1="574.157" y1="179.589" x2="548.01" y2="375.193" gradientUnits="userSpaceOnUse">
<stop offset="0.102" stop-color="#FFD59E"/>
<stop offset="0.301" stop-color="#FFB76C"/>
</linearGradient>
</defs>
</svg>