<?xml version="1.0" encoding="utf-8"?>
<!-- Generator: Adobe Illustrator 24.0.1, SVG Export Plug-In . SVG Version: 6.00 Build 0)  -->
<svg version="1.1" id="Layer_1" xmlns="http://www.w3.org/2000/svg" xmlns:xlink="http://www.w3.org/1999/xlink" x="0px" y="0px"
	 viewBox="0 0 293.4 409.1" style="enable-background:new 0 0 293.4 409.1;" xml:space="preserve">
<style type="text/css">
	.st0{fill:none;}
	.st1{fill:#8C52FF;}
	.st2{clip-path:url(#SVGID_2_);}
	.st3{clip-path:url(#SVGID_4_);}
	.st4{clip-path:url(#SVGID_6_);}
	.st5{clip-path:url(#SVGID_8_);}
	.st6{clip-path:url(#SVGID_10_);}
	.st7{clip-path:url(#SVGID_12_);}
	.st8{clip-path:url(#SVGID_14_);}
	.st9{clip-path:url(#SVGID_16_);}
	.st10{clip-path:url(#SVGID_18_);}
</style>
<path class="st0" d="M185.8,209.7c-9.8-8.3-22-12.5-36.6-12.5c-14.7,0-26.9,4.2-36.7,12.5c-9.8,8.3-16.1,19.5-18.7,33.8h110.8
	C201.9,229.2,195.6,218,185.8,209.7z"/>
<path class="st1" d="M292.5,252.5c-10.1,2.6-20.6,2.2-30.5-1.7l-0.2-0.1c-26.9-10.8-39.2-43.7-28.6-74.7c-3.4,0.7-6.9,1.2-10.5,1.2
	c-21.8,0-41-13.8-52.1-34.6c-0.3,0.4-0.7,0.8-1,1.1c-29.3,30.5-73.2,35.9-98.1,12.1c-1.6-1.6-3.1-3.2-4.5-4.9
	c-20,11.7-35.9,27.1-47.7,46.5C6.4,218.5,0,242.4,0,269c0,26.9,6.5,51,19.6,72.4c13.2,21.3,31.7,37.9,55.6,49.8
	c24,12,51.8,17.9,83.5,17.9c50.5,0,88.9-14.6,115.2-43.9L224,313.4c-9.7,8.3-19.3,14.3-28.7,17.9c-9.5,3.6-20.7,5.4-33.6,5.4
	c-17.3,0-31.7-3.7-43.2-11.2c-11.5-7.5-19.2-18.2-23.2-32.1h196.5c1.1-15,1.6-22.8,1.6-23.5C293.4,264,293,258.2,292.5,252.5z
	 M93.8,243.5c2.6-14.3,8.9-25.6,18.7-33.8c9.8-8.3,22-12.5,36.7-12.5c14.6,0,26.8,4.2,36.6,12.5c9.8,8.3,16.1,19.5,18.8,33.8H93.8z"
	/>
<g>
	<defs>
		<rect id="SVGID_1_" x="107.2" y="56.3" width="75.1" height="75.1"/>
	</defs>
	<clipPath id="SVGID_2_">
		<use xlink:href="#SVGID_1_"  style="overflow:visible;"/>
	</clipPath>
	<g class="st2">
		<g>
			<defs>
				<polygon id="SVGID_3_" points="61.7,60.6 162.6,-55.4 321.1,82.5 220.2,198.4 				"/>
			</defs>
			<clipPath id="SVGID_4_">
				<use xlink:href="#SVGID_3_"  style="overflow:visible;"/>
			</clipPath>
			<g class="st3">
				<g>
					<defs>
						<polygon id="SVGID_5_" points="61.7,60.6 162.6,-55.4 321.1,82.5 220.2,198.4 						"/>
					</defs>
					<clipPath id="SVGID_6_">
						<use xlink:href="#SVGID_5_"  style="overflow:visible;"/>
					</clipPath>
					<g class="st4">
						<path class="st1" d="M132.8,122.4c0,0,32.9,18.5,48.1-41.9c0,0,2.5-29.9-36.6-20.8C144.2,59.7,69.4,51.9,132.8,122.4z"/>
					</g>
				</g>
			</g>
		</g>
	</g>
</g>
<g>
	<defs>
		<rect id="SVGID_7_" x="175.5" y="-5.1" width="41" height="41"/>
	</defs>
	<clipPath id="SVGID_8_">
		<use xlink:href="#SVGID_7_"  style="overflow:visible;"/>
	</clipPath>
	<g class="st5">
		<g>
			<defs>
				<polygon id="SVGID_9_" points="61.7,60.6 162.6,-55.4 321.1,82.5 220.2,198.4 				"/>
			</defs>
			<clipPath id="SVGID_10_">
				<use xlink:href="#SVGID_9_"  style="overflow:visible;"/>
			</clipPath>
			<g class="st6">
				<g>
					<defs>
						<polygon id="SVGID_11_" points="61.7,60.6 162.6,-55.4 321.1,82.5 220.2,198.4 						"/>
					</defs>
					<clipPath id="SVGID_12_">
						<use xlink:href="#SVGID_11_"  style="overflow:visible;"/>
					</clipPath>
					<g class="st7">
						<path class="st1" d="M188.2,31.8c0,0,16.1,9.1,23.6-20.5c0,0,1.2-14.6-18-10.2C193.8,1.1,157.1-2.7,188.2,31.8z"/>
					</g>
				</g>
			</g>
		</g>
	</g>
</g>
<g>
	<defs>
		<rect id="SVGID_13_" x="216.5" y="56.3" width="75.1" height="82"/>
	</defs>
	<clipPath id="SVGID_14_">
		<use xlink:href="#SVGID_13_"  style="overflow:visible;"/>
	</clipPath>
	<g class="st8">
		<g>
			<defs>
				<polygon id="SVGID_15_" points="61.7,60.6 162.6,-55.4 321.1,82.5 220.2,198.4 				"/>
			</defs>
			<clipPath id="SVGID_16_">
				<use xlink:href="#SVGID_15_"  style="overflow:visible;"/>
			</clipPath>
			<g class="st9">
				<g>
					<defs>
						<polygon id="SVGID_17_" points="61.7,60.6 162.6,-55.4 321.1,82.5 220.2,198.4 						"/>
					</defs>
					<clipPath id="SVGID_18_">
						<use xlink:href="#SVGID_17_"  style="overflow:visible;"/>
					</clipPath>
					<g class="st10">
						<path class="st1" d="M225.7,84c0,0-25.6,60.2,10.6,52c36.1-8.1,51.8-14.4,51.8-14.4s-19.6-83-41-60.3
							C225.7,84,225.7,84,225.7,84z"/>
					</g>
				</g>
			</g>
		</g>
	</g>
</g>
</svg>
