<svg id="Camada_1" data-name="Camada 1" xmlns="http://www.w3.org/2000/svg" xmlns:xlink="http://www.w3.org/1999/xlink" viewBox="0 0 368.4 99.77"><defs><style>.cls-1{fill:none;}.cls-2{fill:#8c52ff;}.cls-3{clip-path:url(#clip-path);}.cls-4{clip-path:url(#clip-path-2);}.cls-5{clip-path:url(#clip-path-3);}.cls-6{fill:#fff;}.cls-7{clip-path:url(#clip-path-4);}.cls-8{clip-path:url(#clip-path-5);}.cls-9{clip-path:url(#clip-path-6);}.cls-10{clip-path:url(#clip-path-7);}.cls-11{clip-path:url(#clip-path-8);}.cls-12{clip-path:url(#clip-path-9);}.cls-13{clip-path:url(#clip-path-10);}.cls-14{clip-path:url(#clip-path-12);}.cls-15{clip-path:url(#clip-path-15);}</style><clipPath id="clip-path"><rect class="cls-1" x="216.24" y="6.67" width="28" height="28"/></clipPath><clipPath id="clip-path-2"><rect class="cls-1" x="215.31" y="8.46" width="29.93" height="24.35" transform="translate(55.83 172.36) rotate(-46.14)"/></clipPath><clipPath id="clip-path-3"><path class="cls-1" d="M240.64,9.84c-4.85-4.65-13.42-3.6-19.14,2.36s-6.44,14.56-1.59,19.22,13.42,3.61,19.14-2.35S245.49,14.51,240.64,9.84Z"/></clipPath><clipPath id="clip-path-4"><rect class="cls-1" x="249.58" y="25.33" width="24" height="25.33"/></clipPath><clipPath id="clip-path-5"><rect class="cls-1" x="249.41" y="28" width="24.35" height="21.28" transform="translate(128.89 267.36) rotate(-68.28)"/></clipPath><clipPath id="clip-path-6"><path class="cls-1" d="M271.47,42.58c2.49-6.25.08-13.08-5.37-15.25s-11.9,1.12-14.39,7.37-.08,13.08,5.38,15.25S269,48.82,271.47,42.58Z"/></clipPath><clipPath id="clip-path-7"><rect class="cls-1" x="237.25" y="5.67" width="24.35" height="29.93"/></clipPath><clipPath id="clip-path-8"><ellipse class="cls-1" cx="249.42" cy="20.63" rx="12.18" ry="14.96"/></clipPath><clipPath id="clip-path-9"><rect class="cls-1" x="226.91" y="12" width="14.67" height="14.67"/></clipPath><clipPath id="clip-path-10"><rect class="cls-1" x="228.34" y="-5.53" width="30" height="41" transform="translate(72.37 188.77) rotate(-48.99)"/></clipPath><clipPath id="clip-path-12"><rect class="cls-1" x="240.24" width="8" height="8"/></clipPath><clipPath id="clip-path-15"><rect class="cls-1" x="248.24" y="12" width="14.67" height="16"/></clipPath></defs><path d="M12.85,99.77Q4.78,99.77,0,97L4.67,83.9a10.76,10.76,0,0,0,5.75,1.56,4.94,4.94,0,0,0,4-1.77,7.85,7.85,0,0,0,1.48-5.15V27.23h18.5V78.65q0,9.72-5.71,15.41T12.85,99.77Zm12.28-78.4a11.74,11.74,0,0,1-8.19-2.81,9.08,9.08,0,0,1-3.11-7,9,9,0,0,1,3.11-7,11.75,11.75,0,0,1,8.19-2.83A12,12,0,0,1,33.29,4.4a8.58,8.58,0,0,1,3.13,6.85,9.41,9.41,0,0,1-3.13,7.25A11.52,11.52,0,0,1,25.13,21.37Z"/><path d="M101.26,27.23V80H83.63V74.35a19.12,19.12,0,0,1-7,4.88A23,23,0,0,1,68,80.87q-10.23,0-16.31-6t-6.08-18.1V27.23h18.5V53.71q0,5.94,2.23,8.66a7.93,7.93,0,0,0,6.52,2.73A9.24,9.24,0,0,0,80,62c1.84-2,2.77-5.19,2.77-9.39V27.23Z"/><path d="M131.84,80.87a57.32,57.32,0,0,1-13.06-1.5,34.53,34.53,0,0,1-10.31-4L114,62.77a30.77,30.77,0,0,0,8.54,3.54,38.29,38.29,0,0,0,9.85,1.31c3,0,5.11-.3,6.38-.91A2.9,2.9,0,0,0,140.69,64c0-1.17-.76-2-2.29-2.48a46.32,46.32,0,0,0-7.25-1.39,73.8,73.8,0,0,1-10.77-2,16.4,16.4,0,0,1-7.62-4.68q-3.21-3.42-3.21-9.55a14.47,14.47,0,0,1,3-9,19.86,19.86,0,0,1,8.81-6.22,37.77,37.77,0,0,1,13.88-2.3,56,56,0,0,1,11.39,1.17,33.28,33.28,0,0,1,9.46,3.31L150.53,43.4a30.71,30.71,0,0,0-15.19-3.9,15.13,15.13,0,0,0-6.42,1q-2,1-2,2.67c0,1.24.74,2.1,2.23,2.58a50.89,50.89,0,0,0,7.4,1.52,81.4,81.4,0,0,1,10.81,2.23,16.65,16.65,0,0,1,7.46,4.63q3.16,3.36,3.16,9.39a14.35,14.35,0,0,1-3,8.92A19.82,19.82,0,0,1,146,78.65,40.35,40.35,0,0,1,131.84,80.87Z"/><path d="M201.85,77.85a18.33,18.33,0,0,1-5.69,2.23,31.08,31.08,0,0,1-7.17.79q-10.31,0-15.87-5.06t-5.54-15.08V43h-7.69V29.17h7.69V15.44h18.5V29.17h12.08V43H186.08V60.52a6.25,6.25,0,0,0,1.5,4.44,5.3,5.3,0,0,0,4,1.6,9.83,9.83,0,0,0,5.66-1.64Z"/><path class="cls-2" d="M263.25,53.71c0,.12-.11,1.65-.31,4.58H224.58a10.69,10.69,0,0,0,4.52,6.27,15.2,15.2,0,0,0,8.44,2.19,18.27,18.27,0,0,0,6.56-1.06,19.48,19.48,0,0,0,5.61-3.5l9.73,10.12q-7.69,8.56-22.48,8.56a36,36,0,0,1-16.3-3.5A25.73,25.73,0,0,1,206,53.52,26.06,26.06,0,0,1,220.1,29.85a33.21,33.21,0,0,1,29.21-.23,24.79,24.79,0,0,1,10.19,9.44A27.69,27.69,0,0,1,263.25,53.71ZM235.1,39.5a10.65,10.65,0,0,0-7.16,2.44,10.83,10.83,0,0,0-3.65,6.6h21.62a11,11,0,0,0-3.66-6.6A10.66,10.66,0,0,0,235.1,39.5Z"/><path class="cls-2" d="M293.82,26.35q13.14,0,20.06,6t6.92,18.34V80H303.55V73.19q-4,7.68-15.59,7.68a24.3,24.3,0,0,1-10.6-2.14,15.72,15.72,0,0,1-6.77-5.79,15.27,15.27,0,0,1-2.29-8.32A13.5,13.5,0,0,1,274.05,53q5.74-4.14,17.73-4.15h10.5q-.5-8.37-11.19-8.37a25.4,25.4,0,0,0-7.69,1.23A20.11,20.11,0,0,0,276.78,45l-6.23-12.56A34.48,34.48,0,0,1,281.19,28,50.93,50.93,0,0,1,293.82,26.35Zm-.69,42.84a10.34,10.34,0,0,0,5.65-1.54,8.71,8.71,0,0,0,3.5-4.59V58.48h-8q-8.08,0-8.09,5.35a4.7,4.7,0,0,0,1.86,3.9A8,8,0,0,0,293.13,69.19Z"/><path class="cls-2" d="M368.4,77.85a18.23,18.23,0,0,1-5.69,2.23,31,31,0,0,1-7.17.79q-10.31,0-15.87-5.06t-5.54-15.08V43h-7.69V29.17h7.69V15.44h18.5V29.17h12.08V43H352.63V60.52a6.25,6.25,0,0,0,1.5,4.44,5.3,5.3,0,0,0,4,1.6,9.89,9.89,0,0,0,5.67-1.64Z"/><g class="cls-3"><g class="cls-4"><g class="cls-5"><path class="cls-6" d="M231.87,1.41l17.55,16.87L228.69,39.86,211.13,23Z"/></g></g></g><g class="cls-7"><g class="cls-8"><g class="cls-9"><path class="cls-6" d="M276,31.27l-9,22.62L247.2,46l9-22.63Z"/></g></g></g><g class="cls-10"><g class="cls-11"><path class="cls-6" d="M237.25,5.67H261.6V35.59H237.25Z"/></g></g><g class="cls-12"><g class="cls-13"><g class="cls-13"><path class="cls-2" d="M231.89,24.9s6.42,3.61,9.39-8.18c0,0,.48-5.83-7.15-4.06C234.13,12.66,219.52,11.14,231.89,24.9Z"/></g></g></g><g class="cls-14"><g class="cls-13"><g class="cls-13"><path class="cls-2" d="M242.71,7.22s3.14,1.77,4.6-4c0,0,.23-2.86-3.51-2C243.8,1.22,236.65.48,242.71,7.22Z"/></g></g></g><g class="cls-15"><g class="cls-13"><g class="cls-13"><path class="cls-1" d="M250,17.4s-5,11.75,2.07,10.15a75.07,75.07,0,0,0,10.11-2.82s-3.84-16.2-8-11.77Z"/></g></g></g></svg>
