<svg id="Layer_1" data-name="Layer 1" xmlns="http://www.w3.org/2000/svg" viewBox="0 0 548.2 146.83"><defs><style>.cls-1{fill:#fff;}.cls-2{fill:#27272a;}</style></defs><title>Artboard 13</title><path class="cls-1" d="M19.2,146.83q-12.06,0-19.2-4l7-19.49a16.53,16.53,0,0,0,8.49,2.38A7.28,7.28,0,0,0,21.43,123q2.24-2.67,2.23-7.59V39.1H51.19v76.48c0,9.67-2.83,17.26-8.48,22.92C37.05,144,29.17,146.83,19.2,146.83ZM37.35,30.17c-5.06,0-9.08-1.34-12.2-4.17a13.35,13.35,0,0,1-4.61-10.42A13.34,13.34,0,0,1,25.15,5.17C28.27,2.34,32.29,1,37.35,1s9.08,1.34,12.2,4a12.85,12.85,0,0,1,4.62,10.27,14.29,14.29,0,0,1-4.62,10.86C46.43,28.83,42.41,30.17,37.35,30.17Z"/><path class="cls-1" d="M150.74,39v78.57H124.55v-8.34a28.56,28.56,0,0,1-10.42,7.29,33.61,33.61,0,0,1-12.79,2.39c-10.12,0-18.31-3-24.26-8.93S68,94.9,68,83V39.1H95.53V78.53c0,6,1,10.12,3.28,13,2.23,2.67,5.5,4,9.67,4a13.73,13.73,0,0,0,10.71-4.61c2.68-3.12,4.17-7.74,4.17-14V39.1h27.38Z"/><path class="cls-1" d="M196.13,118.71a86,86,0,0,1-19.5-2.24c-6.4-1.48-11.46-3.42-15.32-6l8.33-18.75A42.31,42.31,0,0,0,182.29,97,55.63,55.63,0,0,0,197,98.92c4.46,0,7.59-.45,9.52-1.34a4.23,4.23,0,0,0,2.83-4c0-1.79-1.19-3-3.42-3.72a73.08,73.08,0,0,0-10.87-2.08,117.05,117.05,0,0,1-16.07-3,23.88,23.88,0,0,1-11.31-7c-3.12-3.43-4.76-8.19-4.76-14.14a21.33,21.33,0,0,1,4.47-13.39c3-3.87,7.29-7,13.09-9.23a57.38,57.38,0,0,1,20.69-3.42,82.2,82.2,0,0,1,17,1.78,52.44,52.44,0,0,1,14.14,4.91L224,63.05a45.67,45.67,0,0,0-22.62-5.8c-4.31,0-7.59.45-9.52,1.49-2.08,1-3,2.38-3,4s1,3.12,3.28,3.87a73.7,73.7,0,0,0,11,2.23,125.23,125.23,0,0,1,16.07,3.27A25,25,0,0,1,230.35,79c3.13,3.27,4.76,8,4.76,14a21.3,21.3,0,0,1-4.46,13.25c-3,3.87-7.44,7-13.24,9.22C211.45,117.67,204.46,118.71,196.13,118.71Z"/><path class="cls-1" d="M300.29,114.24a27.38,27.38,0,0,1-8.48,3.28,48.53,48.53,0,0,1-10.72,1.19q-15.39,0-23.66-7.59c-5.5-5.06-8.18-12.5-8.18-22.47V62.31H237.79V41.77h11.46V21.39h27.53V41.77h18.15V62.31h-18V88.5c0,2.83.74,5.06,2.23,6.55a7.76,7.76,0,0,0,5.95,2.38,14.92,14.92,0,0,0,8.48-2.38Z"/><path class="cls-1" d="M391.66,78.23c0,.15-.15,2.53-.45,6.85H334.07a16.71,16.71,0,0,0,6.69,9.37,22.4,22.4,0,0,0,12.5,3.28,28.38,28.38,0,0,0,9.83-1.64,30.68,30.68,0,0,0,8.33-5.21l14.43,15c-7.59,8.48-18.75,12.8-33.48,12.8a54.41,54.41,0,0,1-24.25-5.21,39.64,39.64,0,0,1-.75-70.68,47.24,47.24,0,0,1,22.17-5.21,45.63,45.63,0,0,1,21.28,4.91,37.18,37.18,0,0,1,15.18,14C389.87,62.61,391.66,69.9,391.66,78.23ZM349.84,57.1a15.35,15.35,0,0,0-16.07,13.39h32.14a16.21,16.21,0,0,0-5.5-9.82A16,16,0,0,0,349.84,57.1Z"/><path class="cls-1" d="M437.19,37.61c13.1,0,22.92,3,29.91,8.93s10.27,15,10.27,27.23v43.6H451.63V107.25c-4,7.59-11.61,11.46-23.22,11.46a36.7,36.7,0,0,1-15.77-3.13A24.12,24.12,0,0,1,402.52,107,23,23,0,0,1,399.1,94.6c0-7.44,2.82-13.24,8.63-17.26,5.65-4.17,14.43-6.1,26.34-6.1h15.62c-.45-8.34-6.1-12.5-16.67-12.5a39,39,0,0,0-11.45,1.78,27.83,27.83,0,0,0-9.82,5.06l-9.23-18.75a54.7,54.7,0,0,1,15.77-6.69A69.4,69.4,0,0,1,437.19,37.61Zm-1,63.69a15.5,15.5,0,0,0,8.33-2.24,12.84,12.84,0,0,0,5.21-6.84V85.37h-11.9q-12.06,0-12.06,8a6.92,6.92,0,0,0,2.83,5.8A13.06,13.06,0,0,0,436.15,101.3Z"/><path class="cls-1" d="M548.2,114.24a27.38,27.38,0,0,1-8.48,3.28A48.53,48.53,0,0,1,529,118.71q-15.39,0-23.66-7.59c-5.5-5.06-8.18-12.5-8.18-22.47V62.31H485.7V41.77h11.46V21.39h27.53V41.77h18V62.31h-18V88.5c0,2.83.74,5.06,2.23,6.55a7.76,7.76,0,0,0,6,2.38,14.89,14.89,0,0,0,8.48-2.38Z"/><path class="cls-2" d="M345.08.41l26.19,25.14L340.47,57.7,314.28,32.55Z"/><path class="cls-2" d="M410.7,44.9,397.31,78.53,367.85,66.77l13.39-33.63Z"/><path class="cls-2" d="M353,6.81h36.31V51.3H353Z"/><path class="cls-1" d="M345.08,35.38s9.52,5.35,14-12.21c0,0,.74-8.63-10.72-6.1C348.35,17.22,326.63,15,345.08,35.38Z"/><path class="cls-1" d="M361.15,9.19s4.61,2.67,6.85-6c0,0,.29-4.31-5.21-3C362.79.26,352.07-.93,361.15,9.19Z"/><path class="cls-1" d="M372,24.22s-7.44,17.55,3.13,15.17a123,123,0,0,0,15-4.16s-5.66-24.11-11.91-17.56Z"/></svg>